<?xml version="1.0" encoding="UTF-8" standalone="no"?>
<!DOCTYPE svg PUBLIC "-//W3C//DTD SVG 1.1//EN"
 "http://www.w3.org/Graphics/SVG/1.1/DTD/svg11.dtd">
<!-- Generated by graphviz version 2.38.0 (20140413.2041)
 -->
<!-- Title: BasicFIR_topEntity Pages: 1 -->
<svg width="2582pt" height="357pt"
 viewBox="0.00 0.00 2582.29 356.81" xmlns="http://www.w3.org/2000/svg" xmlns:xlink="http://www.w3.org/1999/xlink">
<g id="graph0" class="graph" transform="scale(1 1) rotate(0) translate(4 352.814)">
<title>BasicFIR_topEntity</title>
<polygon fill="white" stroke="none" points="-4,4 -4,-352.814 2578.29,-352.814 2578.29,4 -4,4"/>
<text text-anchor="middle" x="1287.15" y="-7.8" font-family="Times,serif" font-size="14.00">BasicFIR_topEntity</text>
<!-- n1 -->
<g id="node1" class="node"><title>n1</title>
<polygon fill="none" stroke="black" points="763.434,-330.814 668.587,-312.814 763.434,-294.814 858.281,-312.814 763.434,-330.814"/>
<text text-anchor="middle" x="763.434" y="-309.114" font-family="Times,serif" font-size="14.00">intermediate[0]</text>
</g>
<!-- c18 -->
<g id="node15" class="node"><title>c18</title>
<polygon fill="none" stroke="black" points="1143.49,-248.814 1143.49,-294.814 1242.49,-294.814 1242.49,-248.814 1143.49,-248.814"/>
<text text-anchor="middle" x="1156.99" y="-279.614" font-family="Times,serif" font-size="14.00">A</text>
<polyline fill="none" stroke="black" points="1143.49,-271.814 1170.49,-271.814 "/>
<text text-anchor="middle" x="1156.99" y="-256.614" font-family="Times,serif" font-size="14.00">B</text>
<polyline fill="none" stroke="black" points="1170.49,-248.814 1170.49,-294.814 "/>
<text text-anchor="middle" x="1192.99" y="-275.614" font-family="Times,serif" font-size="14.00">$57</text>
<text text-anchor="middle" x="1192.99" y="-260.614" font-family="Times,serif" font-size="14.00">$add</text>
<polyline fill="none" stroke="black" points="1215.49,-248.814 1215.49,-294.814 "/>
<text text-anchor="middle" x="1228.99" y="-268.114" font-family="Times,serif" font-size="14.00">Y</text>
</g>
<!-- n1&#45;&gt;c18 -->
<g id="edge2" class="edge"><title>n1:e&#45;&gt;c18:p14:w</title>
<path fill="none" stroke="black" stroke-width="3" d="M858.107,-312.814C918.3,-312.814 1062.87,-286.684 1131.63,-284.03"/>
<polygon fill="black" stroke="black" stroke-width="3" points="1132.06,-287.522 1141.99,-283.814 1131.92,-280.524 1132.06,-287.522"/>
</g>
<!-- n2 -->
<g id="node2" class="node"><title>n2</title>
<polygon fill="none" stroke="black" points="993.548,-277.814 898.702,-259.814 993.548,-241.814 1088.4,-259.814 993.548,-277.814"/>
<text text-anchor="middle" x="993.548" y="-256.114" font-family="Times,serif" font-size="14.00">intermediate[1]</text>
</g>
<!-- n2&#45;&gt;c18 -->
<g id="edge13" class="edge"><title>n2:e&#45;&gt;c18:p15:w</title>
<path fill="none" stroke="black" stroke-width="3" d="M1089.55,-259.814C1109.03,-259.814 1116.3,-259.814 1131.78,-259.814"/>
<polygon fill="black" stroke="black" stroke-width="3" points="1131.99,-263.314 1141.99,-259.814 1131.99,-256.314 1131.99,-263.314"/>
</g>
<!-- n3 -->
<g id="node3" class="node"><title>n3</title>
<polygon fill="none" stroke="black" points="1849.19,-236.814 1754.34,-218.814 1849.19,-200.814 1944.04,-218.814 1849.19,-236.814"/>
<text text-anchor="middle" x="1849.19" y="-215.114" font-family="Times,serif" font-size="14.00">intermediate[2]</text>
</g>
<!-- c19 -->
<g id="node16" class="node"><title>c19</title>
<polygon fill="none" stroke="black" points="1979.86,-183.814 1979.86,-229.814 2078.86,-229.814 2078.86,-183.814 1979.86,-183.814"/>
<text text-anchor="middle" x="1993.36" y="-214.614" font-family="Times,serif" font-size="14.00">A</text>
<polyline fill="none" stroke="black" points="1979.86,-206.814 2006.86,-206.814 "/>
<text text-anchor="middle" x="1993.36" y="-191.614" font-family="Times,serif" font-size="14.00">B</text>
<polyline fill="none" stroke="black" points="2006.86,-183.814 2006.86,-229.814 "/>
<text text-anchor="middle" x="2029.36" y="-210.614" font-family="Times,serif" font-size="14.00">$82</text>
<text text-anchor="middle" x="2029.36" y="-195.614" font-family="Times,serif" font-size="14.00">$add</text>
<polyline fill="none" stroke="black" points="2051.86,-183.814 2051.86,-229.814 "/>
<text text-anchor="middle" x="2065.36" y="-203.114" font-family="Times,serif" font-size="14.00">Y</text>
</g>
<!-- n3&#45;&gt;c19 -->
<g id="edge15" class="edge"><title>n3:e&#45;&gt;c19:p14:w</title>
<path fill="none" stroke="black" stroke-width="3" d="M1943.86,-218.814C1955.86,-218.814 1961.11,-218.814 1969.74,-218.814"/>
<polygon fill="black" stroke="black" stroke-width="3" points="1969.86,-222.314 1979.86,-218.814 1969.86,-215.314 1969.86,-222.314"/>
</g>
<!-- n4 -->
<g id="node4" class="node"><title>n4</title>
<polygon fill="none" stroke="black" points="1849.19,-180.814 1754.34,-162.814 1849.19,-144.814 1944.04,-162.814 1849.19,-180.814"/>
<text text-anchor="middle" x="1849.19" y="-159.114" font-family="Times,serif" font-size="14.00">intermediate[3]</text>
</g>
<!-- n4&#45;&gt;c19 -->
<g id="edge17" class="edge"><title>n4:e&#45;&gt;c19:p15:w</title>
<path fill="none" stroke="black" stroke-width="3" d="M1943.86,-162.814C1961.09,-162.814 1960.04,-183.534 1970.13,-191.628"/>
<polygon fill="black" stroke="black" stroke-width="3" points="1969.27,-195.03 1979.86,-194.814 1971.45,-188.377 1969.27,-195.03"/>
</g>
<!-- n5 -->
<g id="node5" class="node"><title>n5</title>
<polygon fill="none" stroke="black" points="1623.84,-284.814 1529,-266.814 1623.84,-248.814 1718.69,-266.814 1623.84,-284.814"/>
<text text-anchor="middle" x="1623.84" y="-263.114" font-family="Times,serif" font-size="14.00">intermediate[4]</text>
</g>
<!-- c17 -->
<g id="node14" class="node"><title>c17</title>
<polygon fill="none" stroke="black" points="2340.21,-216.814 2340.21,-262.814 2441.21,-262.814 2441.21,-216.814 2340.21,-216.814"/>
<text text-anchor="middle" x="2353.71" y="-247.614" font-family="Times,serif" font-size="14.00">A</text>
<polyline fill="none" stroke="black" points="2340.21,-239.814 2367.21,-239.814 "/>
<text text-anchor="middle" x="2353.71" y="-224.614" font-family="Times,serif" font-size="14.00">B</text>
<polyline fill="none" stroke="black" points="2367.21,-216.814 2367.21,-262.814 "/>
<text text-anchor="middle" x="2390.71" y="-243.614" font-family="Times,serif" font-size="14.00">$107</text>
<text text-anchor="middle" x="2390.71" y="-228.614" font-family="Times,serif" font-size="14.00">$add</text>
<polyline fill="none" stroke="black" points="2414.21,-216.814 2414.21,-262.814 "/>
<text text-anchor="middle" x="2427.71" y="-236.114" font-family="Times,serif" font-size="14.00">Y</text>
</g>
<!-- n5&#45;&gt;c17 -->
<g id="edge19" class="edge"><title>n5:e&#45;&gt;c17:p14:w</title>
<path fill="none" stroke="black" stroke-width="3" d="M1718.52,-266.814C1991.53,-266.814 2062.11,-252.178 2330.18,-251.82"/>
<polygon fill="black" stroke="black" stroke-width="3" points="2330.21,-255.32 2340.21,-251.814 2330.21,-248.32 2330.21,-255.32"/>
</g>
<!-- n6 -->
<g id="node6" class="node"><title>n6</title>
<polygon fill="none" stroke="black" points="2209.54,-231.814 2114.69,-213.814 2209.54,-195.814 2304.38,-213.814 2209.54,-231.814"/>
<text text-anchor="middle" x="2209.54" y="-210.114" font-family="Times,serif" font-size="14.00">intermediate[5]</text>
</g>
<!-- n6&#45;&gt;c17 -->
<g id="edge21" class="edge"><title>n6:e&#45;&gt;c17:p15:w</title>
<path fill="none" stroke="black" stroke-width="3" d="M2304.21,-213.814C2317.35,-213.814 2321.41,-222.02 2330.3,-225.867"/>
<polygon fill="black" stroke="black" stroke-width="3" points="2329.72,-229.321 2340.21,-227.814 2331.07,-222.453 2329.72,-229.321"/>
</g>
<!-- n7 -->
<g id="node7" class="node"><title>n7</title>
<polygon fill="none" stroke="black" points="1393.08,-136.814 1324.21,-118.814 1393.08,-100.814 1461.95,-118.814 1393.08,-136.814"/>
<text text-anchor="middle" x="1393.08" y="-115.114" font-family="Times,serif" font-size="14.00">map_in_0</text>
</g>
<!-- c20 -->
<g id="node18" class="node"><title>c20</title>
<polygon fill="none" stroke="black" points="1573.34,-137.814 1573.34,-183.814 1674.34,-183.814 1674.34,-137.814 1573.34,-137.814"/>
<text text-anchor="middle" x="1586.84" y="-168.614" font-family="Times,serif" font-size="14.00">A</text>
<polyline fill="none" stroke="black" points="1573.34,-160.814 1600.34,-160.814 "/>
<text text-anchor="middle" x="1586.84" y="-145.614" font-family="Times,serif" font-size="14.00">B</text>
<polyline fill="none" stroke="black" points="1600.34,-137.814 1600.34,-183.814 "/>
<text text-anchor="middle" x="1623.84" y="-164.614" font-family="Times,serif" font-size="14.00">$37</text>
<text text-anchor="middle" x="1623.84" y="-149.614" font-family="Times,serif" font-size="14.00">$mul</text>
<polyline fill="none" stroke="black" points="1647.34,-137.814 1647.34,-183.814 "/>
<text text-anchor="middle" x="1660.84" y="-157.114" font-family="Times,serif" font-size="14.00">Y</text>
</g>
<!-- n7&#45;&gt;c20 -->
<g id="edge23" class="edge"><title>n7:e&#45;&gt;c20:p15:w</title>
<path fill="none" stroke="black" stroke-width="3" d="M1463.08,-118.814C1509.6,-118.814 1520.26,-144.634 1561.6,-148.366"/>
<polygon fill="black" stroke="black" stroke-width="3" points="1561.7,-151.874 1571.84,-148.814 1562.01,-144.881 1561.7,-151.874"/>
</g>
<!-- n8 -->
<g id="node8" class="node"><title>n8</title>
<polygon fill="none" stroke="black" points="993.548,-113.814 924.675,-95.8136 993.548,-77.8136 1062.42,-95.8136 993.548,-113.814"/>
<text text-anchor="middle" x="993.548" y="-92.1136" font-family="Times,serif" font-size="14.00">map_in_0</text>
</g>
<!-- c21 -->
<g id="node20" class="node"><title>c21</title>
<polygon fill="none" stroke="black" points="1142.49,-171.814 1142.49,-217.814 1243.49,-217.814 1243.49,-171.814 1142.49,-171.814"/>
<text text-anchor="middle" x="1155.99" y="-202.614" font-family="Times,serif" font-size="14.00">A</text>
<polyline fill="none" stroke="black" points="1142.49,-194.814 1169.49,-194.814 "/>
<text text-anchor="middle" x="1155.99" y="-179.614" font-family="Times,serif" font-size="14.00">B</text>
<polyline fill="none" stroke="black" points="1169.49,-171.814 1169.49,-217.814 "/>
<text text-anchor="middle" x="1192.99" y="-198.614" font-family="Times,serif" font-size="14.00">$38</text>
<text text-anchor="middle" x="1192.99" y="-183.614" font-family="Times,serif" font-size="14.00">$mul</text>
<polyline fill="none" stroke="black" points="1216.49,-171.814 1216.49,-217.814 "/>
<text text-anchor="middle" x="1229.99" y="-191.114" font-family="Times,serif" font-size="14.00">Y</text>
</g>
<!-- n8&#45;&gt;c21 -->
<g id="edge25" class="edge"><title>n8:e&#45;&gt;c21:p15:w</title>
<path fill="none" stroke="black" stroke-width="3" d="M1063.55,-95.8136C1111.47,-95.8136 1092.67,-170.379 1130.69,-181.447"/>
<polygon fill="black" stroke="black" stroke-width="3" points="1130.62,-184.968 1140.99,-182.814 1131.54,-178.029 1130.62,-184.968"/>
</g>
<!-- c30 -->
<g id="node27" class="node"><title>c30</title>
<polygon fill="none" stroke="black" points="1128.99,-84.3136 1128.99,-153.314 1256.99,-153.314 1256.99,-84.3136 1128.99,-84.3136"/>
<text text-anchor="middle" x="1155.99" y="-138.114" font-family="Times,serif" font-size="14.00">ARST</text>
<polyline fill="none" stroke="black" points="1128.99,-130.314 1182.99,-130.314 "/>
<text text-anchor="middle" x="1155.99" y="-115.114" font-family="Times,serif" font-size="14.00">CLK</text>
<polyline fill="none" stroke="black" points="1128.99,-107.314 1182.99,-107.314 "/>
<text text-anchor="middle" x="1155.99" y="-92.1136" font-family="Times,serif" font-size="14.00">D</text>
<polyline fill="none" stroke="black" points="1182.99,-84.3136 1182.99,-153.314 "/>
<text text-anchor="middle" x="1206.49" y="-122.614" font-family="Times,serif" font-size="14.00">$416</text>
<text text-anchor="middle" x="1206.49" y="-107.614" font-family="Times,serif" font-size="14.00">$adff</text>
<polyline fill="none" stroke="black" points="1229.99,-84.3136 1229.99,-153.314 "/>
<text text-anchor="middle" x="1243.49" y="-115.114" font-family="Times,serif" font-size="14.00">Q</text>
</g>
<!-- n8&#45;&gt;c30 -->
<g id="edge26" class="edge"><title>n8:e&#45;&gt;c30:p26:w</title>
<path fill="none" stroke="black" stroke-width="3" d="M1063.55,-95.8136C1088.88,-95.8136 1097.67,-95.8136 1118.74,-95.8136"/>
<polygon fill="black" stroke="black" stroke-width="3" points="1118.99,-99.3137 1128.99,-95.8136 1118.99,-92.3137 1118.99,-99.3137"/>
</g>
<!-- n9 -->
<g id="node9" class="node"><title>n9</title>
<polygon fill="none" stroke="black" points="532.67,-222.814 463.796,-204.814 532.67,-186.814 601.543,-204.814 532.67,-222.814"/>
<text text-anchor="middle" x="532.67" y="-201.114" font-family="Times,serif" font-size="14.00">map_in_0</text>
</g>
<!-- c22 -->
<g id="node22" class="node"><title>c22</title>
<polygon fill="none" stroke="black" points="712.934,-223.814 712.934,-269.814 813.934,-269.814 813.934,-223.814 712.934,-223.814"/>
<text text-anchor="middle" x="726.434" y="-254.614" font-family="Times,serif" font-size="14.00">A</text>
<polyline fill="none" stroke="black" points="712.934,-246.814 739.934,-246.814 "/>
<text text-anchor="middle" x="726.434" y="-231.614" font-family="Times,serif" font-size="14.00">B</text>
<polyline fill="none" stroke="black" points="739.934,-223.814 739.934,-269.814 "/>
<text text-anchor="middle" x="763.434" y="-250.614" font-family="Times,serif" font-size="14.00">$39</text>
<text text-anchor="middle" x="763.434" y="-235.614" font-family="Times,serif" font-size="14.00">$mul</text>
<polyline fill="none" stroke="black" points="786.934,-223.814 786.934,-269.814 "/>
<text text-anchor="middle" x="800.434" y="-243.114" font-family="Times,serif" font-size="14.00">Y</text>
</g>
<!-- n9&#45;&gt;c22 -->
<g id="edge28" class="edge"><title>n9:e&#45;&gt;c22:p15:w</title>
<path fill="none" stroke="black" stroke-width="3" d="M602.67,-204.814C649.191,-204.814 659.847,-230.634 701.184,-234.366"/>
<polygon fill="black" stroke="black" stroke-width="3" points="701.291,-237.874 711.434,-234.814 701.596,-230.881 701.291,-237.874"/>
</g>
<!-- c29 -->
<g id="node26" class="node"><title>c29</title>
<polygon fill="none" stroke="black" points="699.434,-61.3136 699.434,-130.314 827.434,-130.314 827.434,-61.3136 699.434,-61.3136"/>
<text text-anchor="middle" x="726.434" y="-115.114" font-family="Times,serif" font-size="14.00">ARST</text>
<polyline fill="none" stroke="black" points="699.434,-107.314 753.434,-107.314 "/>
<text text-anchor="middle" x="726.434" y="-92.1136" font-family="Times,serif" font-size="14.00">CLK</text>
<polyline fill="none" stroke="black" points="699.434,-84.3136 753.434,-84.3136 "/>
<text text-anchor="middle" x="726.434" y="-69.1136" font-family="Times,serif" font-size="14.00">D</text>
<polyline fill="none" stroke="black" points="753.434,-61.3136 753.434,-130.314 "/>
<text text-anchor="middle" x="776.934" y="-99.6136" font-family="Times,serif" font-size="14.00">$415</text>
<text text-anchor="middle" x="776.934" y="-84.6136" font-family="Times,serif" font-size="14.00">$adff</text>
<polyline fill="none" stroke="black" points="800.434,-61.3136 800.434,-130.314 "/>
<text text-anchor="middle" x="813.934" y="-92.1136" font-family="Times,serif" font-size="14.00">Q</text>
</g>
<!-- n9&#45;&gt;c29 -->
<g id="edge29" class="edge"><title>n9:e&#45;&gt;c29:p26:w</title>
<path fill="none" stroke="black" stroke-width="3" d="M602.67,-204.814C671.469,-204.814 630.637,-85.8795 688.302,-73.8002"/>
<polygon fill="black" stroke="black" stroke-width="3" points="688.82,-77.2663 698.434,-72.8136 688.142,-70.2993 688.82,-77.2663"/>
</g>
<!-- n10 -->
<g id="node10" class="node"><title>n10</title>
<polygon fill="none" stroke="black" points="123.932,-241.358 123.932,-256.269 98.3131,-266.814 62.0832,-266.814 36.4648,-256.269 36.4648,-241.358 62.0832,-230.814 98.3131,-230.814 123.932,-241.358"/>
<text text-anchor="middle" x="80.1981" y="-245.114" font-family="Times,serif" font-size="14.00">input_0</text>
</g>
<!-- c23 -->
<g id="node24" class="node"><title>c23</title>
<polygon fill="none" stroke="black" points="482.17,-295.814 482.17,-341.814 583.17,-341.814 583.17,-295.814 482.17,-295.814"/>
<text text-anchor="middle" x="495.67" y="-326.614" font-family="Times,serif" font-size="14.00">A</text>
<polyline fill="none" stroke="black" points="482.17,-318.814 509.17,-318.814 "/>
<text text-anchor="middle" x="495.67" y="-303.614" font-family="Times,serif" font-size="14.00">B</text>
<polyline fill="none" stroke="black" points="509.17,-295.814 509.17,-341.814 "/>
<text text-anchor="middle" x="532.67" y="-322.614" font-family="Times,serif" font-size="14.00">$40</text>
<text text-anchor="middle" x="532.67" y="-307.614" font-family="Times,serif" font-size="14.00">$mul</text>
<polyline fill="none" stroke="black" points="556.17,-295.814 556.17,-341.814 "/>
<text text-anchor="middle" x="569.67" y="-315.114" font-family="Times,serif" font-size="14.00">Y</text>
</g>
<!-- n10&#45;&gt;c23 -->
<g id="edge3" class="edge"><title>n10:e&#45;&gt;c23:p15:w</title>
<path fill="none" stroke="black" stroke-width="3" d="M125.198,-248.814C157.731,-248.814 164.441,-259.707 196.396,-265.814 318.35,-289.117 351.24,-305.876 470.411,-306.776"/>
<polygon fill="black" stroke="black" stroke-width="3" points="470.657,-310.276 480.67,-306.814 470.683,-303.276 470.657,-310.276"/>
</g>
<!-- c28 -->
<g id="node25" class="node"><title>c28</title>
<polygon fill="none" stroke="black" points="232.487,-187.314 232.487,-256.314 360.487,-256.314 360.487,-187.314 232.487,-187.314"/>
<text text-anchor="middle" x="259.487" y="-241.114" font-family="Times,serif" font-size="14.00">ARST</text>
<polyline fill="none" stroke="black" points="232.487,-233.314 286.487,-233.314 "/>
<text text-anchor="middle" x="259.487" y="-218.114" font-family="Times,serif" font-size="14.00">CLK</text>
<polyline fill="none" stroke="black" points="232.487,-210.314 286.487,-210.314 "/>
<text text-anchor="middle" x="259.487" y="-195.114" font-family="Times,serif" font-size="14.00">D</text>
<polyline fill="none" stroke="black" points="286.487,-187.314 286.487,-256.314 "/>
<text text-anchor="middle" x="309.987" y="-225.614" font-family="Times,serif" font-size="14.00">$414</text>
<text text-anchor="middle" x="309.987" y="-210.614" font-family="Times,serif" font-size="14.00">$adff</text>
<polyline fill="none" stroke="black" points="333.487,-187.314 333.487,-256.314 "/>
<text text-anchor="middle" x="346.987" y="-218.114" font-family="Times,serif" font-size="14.00">Q</text>
</g>
<!-- n10&#45;&gt;c28 -->
<g id="edge4" class="edge"><title>n10:e&#45;&gt;c28:p26:w</title>
<path fill="none" stroke="black" stroke-width="3" d="M125.198,-248.814C173.835,-248.814 178.79,-205.416 221.455,-199.483"/>
<polygon fill="black" stroke="black" stroke-width="3" points="221.742,-202.971 231.487,-198.814 221.277,-195.987 221.742,-202.971"/>
</g>
<!-- n11 -->
<g id="node11" class="node"><title>n11</title>
<polygon fill="none" stroke="black" points="2574.33,-232.358 2574.33,-247.269 2545.88,-257.814 2505.63,-257.814 2477.17,-247.269 2477.17,-232.358 2505.63,-221.814 2545.88,-221.814 2574.33,-232.358"/>
<text text-anchor="middle" x="2525.75" y="-236.114" font-family="Times,serif" font-size="14.00">output_0</text>
</g>
<!-- n12 -->
<g id="node12" class="node"><title>n12</title>
<polygon fill="none" stroke="black" points="140.699,-75.3578 140.699,-90.2694 105.258,-100.814 55.1379,-100.814 19.6974,-90.2694 19.6974,-75.3578 55.1379,-64.8136 105.258,-64.8136 140.699,-75.3578"/>
<text text-anchor="middle" x="80.1981" y="-79.1136" font-family="Times,serif" font-size="14.00">system1000</text>
</g>
<!-- n12&#45;&gt;c28 -->
<g id="edge6" class="edge"><title>n12:e&#45;&gt;c28:p25:w</title>
<path fill="none" stroke="black" d="M142.198,-82.8136C211.895,-82.8136 163.57,-208.055 221.281,-220.775"/>
<polygon fill="black" stroke="black" points="221.184,-224.283 231.487,-221.814 221.893,-217.319 221.184,-224.283"/>
</g>
<!-- n12&#45;&gt;c29 -->
<g id="edge7" class="edge"><title>n12:e&#45;&gt;c29:p25:w</title>
<path fill="none" stroke="black" d="M142.198,-82.8136C386.101,-82.8136 449.43,-95.4606 688.395,-95.8064"/>
<polygon fill="black" stroke="black" points="688.431,-99.3063 698.434,-95.8136 688.437,-92.3063 688.431,-99.3063"/>
</g>
<!-- n12&#45;&gt;c30 -->
<g id="edge8" class="edge"><title>n12:e&#45;&gt;c30:p25:w</title>
<path fill="none" stroke="black" d="M142.198,-82.8136C229.458,-82.8136 444.41,-32.8136 531.67,-32.8136 531.67,-32.8136 531.67,-32.8136 764.434,-32.8136 911.333,-32.8136 966.093,5.18911 1092.99,-68.8136 1112.95,-80.4528 1105.36,-108.047 1118.95,-116.385"/>
<polygon fill="black" stroke="black" points="1118.45,-119.864 1128.99,-118.814 1120.09,-113.061 1118.45,-119.864"/>
</g>
<!-- n13 -->
<g id="node13" class="node"><title>n13</title>
<polygon fill="none" stroke="black" points="160.595,-151.358 160.595,-166.269 113.5,-176.814 46.8967,-176.814 -0.198637,-166.269 -0.198637,-151.358 46.8967,-140.814 113.5,-140.814 160.595,-151.358"/>
<text text-anchor="middle" x="80.1981" y="-155.114" font-family="Times,serif" font-size="14.00">system1000_rstn</text>
</g>
<!-- n13&#45;&gt;c28 -->
<g id="edge9" class="edge"><title>n13:e&#45;&gt;c28:p24:w</title>
<path fill="none" stroke="black" d="M160.396,-158.814C206.113,-158.814 185.812,-231.901 221.213,-243.321"/>
<polygon fill="black" stroke="black" points="221.088,-246.839 231.487,-244.814 222.095,-239.912 221.088,-246.839"/>
</g>
<!-- n13&#45;&gt;c29 -->
<g id="edge10" class="edge"><title>n13:e&#45;&gt;c29:p24:w</title>
<path fill="none" stroke="black" d="M160.396,-158.814C177.564,-158.814 179.611,-148.414 196.396,-144.814 411.546,-98.6597 473.15,-118.198 688.399,-118.8"/>
<polygon fill="black" stroke="black" points="688.429,-122.3 698.434,-118.814 688.439,-115.3 688.429,-122.3"/>
</g>
<!-- n13&#45;&gt;c30 -->
<g id="edge11" class="edge"><title>n13:e&#45;&gt;c30:p24:w</title>
<path fill="none" stroke="black" d="M160.396,-158.814C325.407,-158.814 366.659,-158.814 531.67,-158.814 531.67,-158.814 531.67,-158.814 764.434,-158.814 923.15,-158.814 965.007,-142.536 1118.7,-141.837"/>
<polygon fill="black" stroke="black" points="1119,-145.336 1128.99,-141.814 1118.98,-138.336 1119,-145.336"/>
</g>
<!-- c17&#45;&gt;n11 -->
<g id="edge5" class="edge"><title>c17:p16:e&#45;&gt;n11:w</title>
<path fill="none" stroke="black" stroke-width="3" d="M2441.21,-239.814C2453.21,-239.814 2458.46,-239.814 2467.09,-239.814"/>
<polygon fill="black" stroke="black" stroke-width="3" points="2467.21,-243.314 2477.21,-239.814 2467.21,-236.314 2467.21,-243.314"/>
</g>
<!-- c18&#45;&gt;n5 -->
<g id="edge18" class="edge"><title>c18:p16:e&#45;&gt;n5:w</title>
<path fill="none" stroke="black" stroke-width="3" d="M1243.99,-271.814C1367.29,-271.814 1400.6,-267.083 1518.98,-266.825"/>
<polygon fill="black" stroke="black" stroke-width="3" points="1519.18,-270.325 1529.17,-266.814 1519.17,-263.325 1519.18,-270.325"/>
</g>
<!-- c19&#45;&gt;n6 -->
<g id="edge20" class="edge"><title>c19:p16:e&#45;&gt;n6:w</title>
<path fill="none" stroke="black" stroke-width="3" d="M2078.86,-206.814C2091.09,-206.814 2096.06,-210.751 2104.66,-212.72"/>
<polygon fill="black" stroke="black" stroke-width="3" points="2104.55,-216.228 2114.86,-213.814 2105.29,-209.268 2104.55,-216.228"/>
</g>
<!-- v0 -->
<g id="node17" class="node"><title>v0</title>
<ellipse fill="none" stroke="black" cx="1393.08" cy="-172.814" rx="100.182" ry="18"/>
<text text-anchor="middle" x="1393.08" y="-169.114" font-family="Times,serif" font-size="14.00">16&#39;0000000000001001</text>
</g>
<!-- v0&#45;&gt;c20 -->
<g id="edge30" class="edge"><title>v0:e&#45;&gt;c20:p14:w</title>
<path fill="none" stroke="black" stroke-width="3" d="M1493.17,-172.814C1524.45,-172.814 1534.74,-172.814 1561.6,-172.814"/>
<polygon fill="black" stroke="black" stroke-width="3" points="1561.84,-176.314 1571.84,-172.814 1561.84,-169.314 1561.84,-176.314"/>
</g>
<!-- c20&#45;&gt;n4 -->
<g id="edge16" class="edge"><title>c20:p16:e&#45;&gt;n4:w</title>
<path fill="none" stroke="black" stroke-width="3" d="M1675.84,-160.814C1707.13,-160.814 1717.41,-162.414 1744.27,-162.752"/>
<polygon fill="black" stroke="black" stroke-width="3" points="1744.5,-166.253 1754.52,-162.814 1744.54,-159.253 1744.5,-166.253"/>
</g>
<!-- v1 -->
<g id="node19" class="node"><title>v1</title>
<ellipse fill="none" stroke="black" cx="993.548" cy="-205.814" rx="99.3824" ry="18"/>
<text text-anchor="middle" x="993.548" y="-202.114" font-family="Times,serif" font-size="14.00">16&#39;0000000000000111</text>
</g>
<!-- v1&#45;&gt;c21 -->
<g id="edge31" class="edge"><title>v1:e&#45;&gt;c21:p14:w</title>
<path fill="none" stroke="black" stroke-width="3" d="M1092.99,-205.814C1110.49,-205.814 1117.22,-206.487 1130.85,-206.728"/>
<polygon fill="black" stroke="black" stroke-width="3" points="1130.96,-210.229 1140.99,-206.814 1131.02,-203.23 1130.96,-210.229"/>
</g>
<!-- c21&#45;&gt;n3 -->
<g id="edge14" class="edge"><title>c21:p16:e&#45;&gt;n3:w</title>
<path fill="none" stroke="black" stroke-width="3" d="M1244.99,-194.814C1266.44,-194.814 1271.6,-198.261 1292.99,-199.814 1494.35,-214.431 1547.47,-218.673 1744.42,-218.81"/>
<polygon fill="black" stroke="black" stroke-width="3" points="1744.52,-222.31 1754.52,-218.814 1744.52,-215.31 1744.52,-222.31"/>
</g>
<!-- v2 -->
<g id="node21" class="node"><title>v2</title>
<ellipse fill="none" stroke="black" cx="532.67" cy="-258.814" rx="100.182" ry="18"/>
<text text-anchor="middle" x="532.67" y="-255.114" font-family="Times,serif" font-size="14.00">16&#39;0000000000000101</text>
</g>
<!-- v2&#45;&gt;c22 -->
<g id="edge32" class="edge"><title>v2:e&#45;&gt;c22:p14:w</title>
<path fill="none" stroke="black" stroke-width="3" d="M632.761,-258.814C664.039,-258.814 674.332,-258.814 701.184,-258.814"/>
<polygon fill="black" stroke="black" stroke-width="3" points="701.434,-262.314 711.434,-258.814 701.434,-255.314 701.434,-262.314"/>
</g>
<!-- c22&#45;&gt;n2 -->
<g id="edge12" class="edge"><title>c22:p16:e&#45;&gt;n2:w</title>
<path fill="none" stroke="black" stroke-width="3" d="M815.434,-246.814C848.775,-246.814 858.72,-257.399 887.492,-259.466"/>
<polygon fill="black" stroke="black" stroke-width="3" points="887.433,-262.966 897.548,-259.814 887.675,-255.97 887.433,-262.966"/>
</g>
<!-- v3 -->
<g id="node23" class="node"><title>v3</title>
<ellipse fill="none" stroke="black" cx="296.487" cy="-330.814" rx="100.182" ry="18"/>
<text text-anchor="middle" x="296.487" y="-327.114" font-family="Times,serif" font-size="14.00">16&#39;0000000000000011</text>
</g>
<!-- v3&#45;&gt;c23 -->
<g id="edge33" class="edge"><title>v3:e&#45;&gt;c23:p14:w</title>
<path fill="none" stroke="black" stroke-width="3" d="M396.579,-330.814C430.303,-330.814 441.204,-330.814 470.47,-330.814"/>
<polygon fill="black" stroke="black" stroke-width="3" points="470.67,-334.314 480.67,-330.814 470.67,-327.314 470.67,-334.314"/>
</g>
<!-- c23&#45;&gt;n1 -->
<g id="edge1" class="edge"><title>c23:p16:e&#45;&gt;n1:w</title>
<path fill="none" stroke="black" stroke-width="3" d="M584.67,-318.814C618.479,-318.814 629.234,-313.928 658.541,-312.974"/>
<polygon fill="black" stroke="black" stroke-width="3" points="658.817,-316.47 668.761,-312.814 658.707,-309.471 658.817,-316.47"/>
</g>
<!-- c28&#45;&gt;n9 -->
<g id="edge27" class="edge"><title>c28:p27:e&#45;&gt;n9:w</title>
<path fill="none" stroke="black" stroke-width="3" d="M361.487,-221.814C403.525,-221.814 415.292,-207.366 452.6,-205.109"/>
<polygon fill="black" stroke="black" stroke-width="3" points="452.776,-208.605 462.67,-204.814 452.571,-201.608 452.776,-208.605"/>
</g>
<!-- c29&#45;&gt;n8 -->
<g id="edge24" class="edge"><title>c29:p27:e&#45;&gt;n8:w</title>
<path fill="none" stroke="black" stroke-width="3" d="M828.434,-95.8136C867.074,-95.8136 879.225,-95.8136 913.312,-95.8136"/>
<polygon fill="black" stroke="black" stroke-width="3" points="913.548,-99.3137 923.548,-95.8136 913.548,-92.3137 913.548,-99.3137"/>
</g>
<!-- c30&#45;&gt;n7 -->
<g id="edge22" class="edge"><title>c30:p27:e&#45;&gt;n7:w</title>
<path fill="none" stroke="black" stroke-width="3" d="M1256.99,-118.814C1282.69,-118.814 1291.53,-118.814 1313.01,-118.814"/>
<polygon fill="black" stroke="black" stroke-width="3" points="1313.08,-122.314 1323.08,-118.814 1313.08,-115.314 1313.08,-122.314"/>
</g>
</g>
</svg>
