<?xml version="1.0" encoding="UTF-8" standalone="no"?>
<!DOCTYPE svg PUBLIC "-//W3C//DTD SVG 1.1//EN"
 "http://www.w3.org/Graphics/SVG/1.1/DTD/svg11.dtd">
<!-- Generated by graphviz version 2.38.0 (20140413.2041)
 -->
<!-- Title: Main_topEntity Pages: 1 -->
<svg width="1767pt" height="646pt"
 viewBox="0.00 0.00 1766.51 645.62" xmlns="http://www.w3.org/2000/svg" xmlns:xlink="http://www.w3.org/1999/xlink">
<g id="graph0" class="graph" transform="scale(1 1) rotate(0) translate(4 641.619)">
<title>Main_topEntity</title>
<polygon fill="white" stroke="none" points="-4,4 -4,-641.619 1762.51,-641.619 1762.51,4 -4,4"/>
<text text-anchor="middle" x="879.254" y="-7.8" font-family="Times,serif" font-size="14.00">Main_topEntity</text>
<!-- n1 -->
<g id="node1" class="node"><title>n1</title>
<polygon fill="none" stroke="black" points="369.573,-290.619 192.278,-272.619 369.573,-254.619 546.867,-272.619 369.573,-290.619"/>
<text text-anchor="middle" x="369.573" y="-268.919" font-family="Times,serif" font-size="14.00">Main_window_app_arg_0.dout</text>
</g>
<!-- x1 -->
<g id="node17" class="node"><title>x1</title>
<path fill="none" stroke="black" d="M649.112,-254.619C649.112,-254.619 700.112,-254.619 700.112,-254.619 706.112,-254.619 712.112,-260.619 712.112,-266.619 712.112,-266.619 712.112,-278.619 712.112,-278.619 712.112,-284.619 706.112,-290.619 700.112,-290.619 700.112,-290.619 649.112,-290.619 649.112,-290.619 643.112,-290.619 637.112,-284.619 637.112,-278.619 637.112,-278.619 637.112,-266.619 637.112,-266.619 637.112,-260.619 643.112,-254.619 649.112,-254.619"/>
<text text-anchor="middle" x="674.612" y="-268.919" font-family="Times,serif" font-size="14.00">15:0 &#45; 15:0</text>
</g>
<!-- n1&#45;&gt;x1 -->
<g id="edge6" class="edge"><title>n1:e&#45;&gt;x1:s0:w</title>
<path fill="none" stroke="black" stroke-width="3" d="M546.97,-272.619C582.673,-272.619 594.109,-272.619 625.262,-272.619"/>
<polygon fill="black" stroke="black" stroke-width="3" points="625.612,-276.119 635.612,-272.619 625.612,-269.119 625.612,-276.119"/>
</g>
<!-- x3 -->
<g id="node20" class="node"><title>x3</title>
<path fill="none" stroke="black" d="M645.612,-364.619C645.612,-364.619 703.612,-364.619 703.612,-364.619 709.612,-364.619 715.612,-370.619 715.612,-376.619 715.612,-376.619 715.612,-388.619 715.612,-388.619 715.612,-394.619 709.612,-400.619 703.612,-400.619 703.612,-400.619 645.612,-400.619 645.612,-400.619 639.612,-400.619 633.612,-394.619 633.612,-388.619 633.612,-388.619 633.612,-376.619 633.612,-376.619 633.612,-370.619 639.612,-364.619 645.612,-364.619"/>
<text text-anchor="middle" x="674.612" y="-378.919" font-family="Times,serif" font-size="14.00">31:16 &#45; 15:0</text>
</g>
<!-- n1&#45;&gt;x3 -->
<g id="edge7" class="edge"><title>n1:e&#45;&gt;x3:s0:w</title>
<path fill="none" stroke="black" stroke-width="3" d="M546.97,-272.619C586.772,-272.619 556.266,-325.105 582.97,-354.619 597.442,-370.614 604.896,-379.672 622.432,-382.009"/>
<polygon fill="black" stroke="black" stroke-width="3" points="622.42,-385.514 632.612,-382.619 622.839,-378.527 622.42,-385.514"/>
</g>
<!-- x5 -->
<g id="node23" class="node"><title>x5</title>
<path fill="none" stroke="black" d="M645.612,-474.619C645.612,-474.619 703.612,-474.619 703.612,-474.619 709.612,-474.619 715.612,-480.619 715.612,-486.619 715.612,-486.619 715.612,-498.619 715.612,-498.619 715.612,-504.619 709.612,-510.619 703.612,-510.619 703.612,-510.619 645.612,-510.619 645.612,-510.619 639.612,-510.619 633.612,-504.619 633.612,-498.619 633.612,-498.619 633.612,-486.619 633.612,-486.619 633.612,-480.619 639.612,-474.619 645.612,-474.619"/>
<text text-anchor="middle" x="674.612" y="-488.919" font-family="Times,serif" font-size="14.00">47:32 &#45; 15:0</text>
</g>
<!-- n1&#45;&gt;x5 -->
<g id="edge8" class="edge"><title>n1:e&#45;&gt;x5:s0:w</title>
<path fill="none" stroke="black" stroke-width="3" d="M546.97,-272.619C590.38,-272.619 557.702,-429.321 582.97,-464.619 595.526,-482.159 604.327,-490.131 622.305,-492.111"/>
<polygon fill="black" stroke="black" stroke-width="3" points="622.452,-495.622 632.612,-492.619 622.796,-488.631 622.452,-495.622"/>
</g>
<!-- x7 -->
<g id="node27" class="node"><title>x7</title>
<path fill="none" stroke="black" d="M645.612,-150.619C645.612,-150.619 703.612,-150.619 703.612,-150.619 709.612,-150.619 715.612,-156.619 715.612,-162.619 715.612,-162.619 715.612,-184.619 715.612,-184.619 715.612,-190.619 709.612,-196.619 703.612,-196.619 703.612,-196.619 645.612,-196.619 645.612,-196.619 639.612,-196.619 633.612,-190.619 633.612,-184.619 633.612,-184.619 633.612,-162.619 633.612,-162.619 633.612,-156.619 639.612,-150.619 645.612,-150.619"/>
<text text-anchor="middle" x="674.612" y="-181.419" font-family="Times,serif" font-size="14.00">15:0 &#45; 47:32</text>
<polyline fill="none" stroke="black" points="633.612,-173.619 715.612,-173.619 "/>
<text text-anchor="middle" x="674.612" y="-158.419" font-family="Times,serif" font-size="14.00">47:16 &#45; 31:0</text>
</g>
<!-- n1&#45;&gt;x7 -->
<g id="edge9" class="edge"><title>n1:e&#45;&gt;x7:s0:w</title>
<path fill="none" stroke="black" stroke-width="3" d="M546.97,-272.619C578.45,-272.619 563.732,-236.537 582.97,-211.619 599.79,-189.834 601.201,-167.719 622.557,-162.683"/>
<polygon fill="black" stroke="black" stroke-width="3" points="623.036,-166.152 632.612,-161.619 622.299,-159.191 623.036,-166.152"/>
</g>
<!-- n2 -->
<g id="node2" class="node"><title>n2</title>
<polygon fill="none" stroke="black" points="1055.25,-599.619 964.257,-581.619 1055.25,-563.619 1146.24,-581.619 1055.25,-599.619"/>
<text text-anchor="middle" x="1055.25" y="-577.919" font-family="Times,serif" font-size="14.00">intermediate[0]</text>
</g>
<!-- c15 -->
<g id="node12" class="node"><title>c15</title>
<polygon fill="none" stroke="black" points="1182.25,-508.619 1182.25,-554.619 1278.25,-554.619 1278.25,-508.619 1182.25,-508.619"/>
<text text-anchor="middle" x="1195.25" y="-539.419" font-family="Times,serif" font-size="14.00">A</text>
<polyline fill="none" stroke="black" points="1182.25,-531.619 1208.25,-531.619 "/>
<text text-anchor="middle" x="1195.25" y="-516.419" font-family="Times,serif" font-size="14.00">B</text>
<polyline fill="none" stroke="black" points="1208.25,-508.619 1208.25,-554.619 "/>
<text text-anchor="middle" x="1230.25" y="-535.419" font-family="Times,serif" font-size="14.00">$49</text>
<text text-anchor="middle" x="1230.25" y="-520.419" font-family="Times,serif" font-size="14.00">$add</text>
<polyline fill="none" stroke="black" points="1252.25,-508.619 1252.25,-554.619 "/>
<text text-anchor="middle" x="1265.25" y="-527.919" font-family="Times,serif" font-size="14.00">Y</text>
</g>
<!-- n2&#45;&gt;c15 -->
<g id="edge13" class="edge"><title>n2:e&#45;&gt;c15:p12:w</title>
<path fill="none" stroke="black" stroke-width="3" d="M1146.25,-581.619C1165.33,-581.619 1161.68,-556.049 1172.59,-546.859"/>
<polygon fill="black" stroke="black" stroke-width="3" points="1173.88,-550.117 1182.25,-543.619 1171.65,-543.481 1173.88,-550.117"/>
</g>
<!-- n3 -->
<g id="node3" class="node"><title>n3</title>
<polygon fill="none" stroke="black" points="1055.25,-537.619 964.257,-519.619 1055.25,-501.619 1146.24,-519.619 1055.25,-537.619"/>
<text text-anchor="middle" x="1055.25" y="-515.919" font-family="Times,serif" font-size="14.00">intermediate[1]</text>
</g>
<!-- n3&#45;&gt;c15 -->
<g id="edge15" class="edge"><title>n3:e&#45;&gt;c15:p13:w</title>
<path fill="none" stroke="black" stroke-width="3" d="M1146.25,-519.619C1158.25,-519.619 1163.5,-519.619 1172.12,-519.619"/>
<polygon fill="black" stroke="black" stroke-width="3" points="1172.25,-523.119 1182.25,-519.619 1172.25,-516.119 1172.25,-523.119"/>
</g>
<!-- n4 -->
<g id="node4" class="node"><title>n4</title>
<polygon fill="none" stroke="black" points="1055.25,-428.619 964.257,-410.619 1055.25,-392.619 1146.24,-410.619 1055.25,-428.619"/>
<text text-anchor="middle" x="1055.25" y="-406.919" font-family="Times,serif" font-size="14.00">intermediate[2]</text>
</g>
<!-- c16 -->
<g id="node13" class="node"><title>c16</title>
<polygon fill="none" stroke="black" points="1182.25,-375.619 1182.25,-421.619 1278.25,-421.619 1278.25,-375.619 1182.25,-375.619"/>
<text text-anchor="middle" x="1195.25" y="-406.419" font-family="Times,serif" font-size="14.00">A</text>
<polyline fill="none" stroke="black" points="1182.25,-398.619 1208.25,-398.619 "/>
<text text-anchor="middle" x="1195.25" y="-383.419" font-family="Times,serif" font-size="14.00">B</text>
<polyline fill="none" stroke="black" points="1208.25,-375.619 1208.25,-421.619 "/>
<text text-anchor="middle" x="1230.25" y="-402.419" font-family="Times,serif" font-size="14.00">$74</text>
<text text-anchor="middle" x="1230.25" y="-387.419" font-family="Times,serif" font-size="14.00">$add</text>
<polyline fill="none" stroke="black" points="1252.25,-375.619 1252.25,-421.619 "/>
<text text-anchor="middle" x="1265.25" y="-394.919" font-family="Times,serif" font-size="14.00">Y</text>
</g>
<!-- n4&#45;&gt;c16 -->
<g id="edge17" class="edge"><title>n4:e&#45;&gt;c16:p12:w</title>
<path fill="none" stroke="black" stroke-width="3" d="M1146.25,-410.619C1158.25,-410.619 1163.5,-410.619 1172.12,-410.619"/>
<polygon fill="black" stroke="black" stroke-width="3" points="1172.25,-414.119 1182.25,-410.619 1172.25,-407.119 1172.25,-414.119"/>
</g>
<!-- n5 -->
<g id="node5" class="node"><title>n5</title>
<polygon fill="none" stroke="black" points="1055.25,-354.619 964.257,-336.619 1055.25,-318.619 1146.24,-336.619 1055.25,-354.619"/>
<text text-anchor="middle" x="1055.25" y="-332.919" font-family="Times,serif" font-size="14.00">intermediate[3]</text>
</g>
<!-- n5&#45;&gt;c16 -->
<g id="edge19" class="edge"><title>n5:e&#45;&gt;c16:p13:w</title>
<path fill="none" stroke="black" stroke-width="3" d="M1146.25,-336.619C1169.35,-336.619 1159.6,-372.215 1172.44,-383.339"/>
<polygon fill="black" stroke="black" stroke-width="3" points="1171.65,-386.766 1182.25,-386.619 1173.87,-380.128 1171.65,-386.766"/>
</g>
<!-- n6 -->
<g id="node6" class="node"><title>n6</title>
<polygon fill="none" stroke="black" points="1405.24,-529.619 1314.25,-511.619 1405.24,-493.619 1496.24,-511.619 1405.24,-529.619"/>
<text text-anchor="middle" x="1405.24" y="-507.919" font-family="Times,serif" font-size="14.00">intermediate[4]</text>
</g>
<!-- c17 -->
<g id="node14" class="node"><title>c17</title>
<polygon fill="none" stroke="black" points="1532.24,-451.619 1532.24,-497.619 1628.24,-497.619 1628.24,-451.619 1532.24,-451.619"/>
<text text-anchor="middle" x="1545.24" y="-482.419" font-family="Times,serif" font-size="14.00">A</text>
<polyline fill="none" stroke="black" points="1532.24,-474.619 1558.24,-474.619 "/>
<text text-anchor="middle" x="1545.24" y="-459.419" font-family="Times,serif" font-size="14.00">B</text>
<polyline fill="none" stroke="black" points="1558.24,-451.619 1558.24,-497.619 "/>
<text text-anchor="middle" x="1580.24" y="-478.419" font-family="Times,serif" font-size="14.00">$99</text>
<text text-anchor="middle" x="1580.24" y="-463.419" font-family="Times,serif" font-size="14.00">$add</text>
<polyline fill="none" stroke="black" points="1602.24,-451.619 1602.24,-497.619 "/>
<text text-anchor="middle" x="1615.24" y="-470.919" font-family="Times,serif" font-size="14.00">Y</text>
</g>
<!-- n6&#45;&gt;c17 -->
<g id="edge21" class="edge"><title>n6:e&#45;&gt;c17:p12:w</title>
<path fill="none" stroke="black" stroke-width="3" d="M1496.24,-511.619C1511.61,-511.619 1513.01,-496.054 1522.49,-489.487"/>
<polygon fill="black" stroke="black" stroke-width="3" points="1523.63,-492.798 1532.24,-486.619 1521.66,-486.082 1523.63,-492.798"/>
</g>
<!-- n7 -->
<g id="node7" class="node"><title>n7</title>
<polygon fill="none" stroke="black" points="1405.24,-455.619 1314.25,-437.619 1405.24,-419.619 1496.24,-437.619 1405.24,-455.619"/>
<text text-anchor="middle" x="1405.24" y="-433.919" font-family="Times,serif" font-size="14.00">intermediate[5]</text>
</g>
<!-- n7&#45;&gt;c17 -->
<g id="edge23" class="edge"><title>n7:e&#45;&gt;c17:p13:w</title>
<path fill="none" stroke="black" stroke-width="3" d="M1496.24,-437.619C1511.61,-437.619 1513.01,-453.185 1522.49,-459.751"/>
<polygon fill="black" stroke="black" stroke-width="3" points="1521.66,-463.156 1532.24,-462.619 1523.63,-456.44 1521.66,-463.156"/>
</g>
<!-- n8 -->
<g id="node8" class="node"><title>n8</title>
<polygon fill="none" stroke="black" points="119.6,-392.163 119.6,-407.075 95.2826,-417.619 60.8928,-417.619 36.5756,-407.075 36.5756,-392.163 60.8928,-381.619 95.2826,-381.619 119.6,-392.163"/>
<text text-anchor="middle" x="78.0877" y="-395.919" font-family="Times,serif" font-size="14.00">input_0</text>
</g>
<!-- c21 -->
<g id="node25" class="node"><title>c21</title>
<polygon fill="none" stroke="black" points="626.612,-584.619 626.612,-630.619 722.612,-630.619 722.612,-584.619 626.612,-584.619"/>
<text text-anchor="middle" x="639.612" y="-615.419" font-family="Times,serif" font-size="14.00">A</text>
<polyline fill="none" stroke="black" points="626.612,-607.619 652.612,-607.619 "/>
<text text-anchor="middle" x="639.612" y="-592.419" font-family="Times,serif" font-size="14.00">B</text>
<polyline fill="none" stroke="black" points="652.612,-584.619 652.612,-630.619 "/>
<text text-anchor="middle" x="674.612" y="-611.419" font-family="Times,serif" font-size="14.00">$32</text>
<text text-anchor="middle" x="674.612" y="-596.419" font-family="Times,serif" font-size="14.00">$mul</text>
<polyline fill="none" stroke="black" points="696.612,-584.619 696.612,-630.619 "/>
<text text-anchor="middle" x="709.612" y="-603.919" font-family="Times,serif" font-size="14.00">Y</text>
</g>
<!-- n8&#45;&gt;c21 -->
<g id="edge24" class="edge"><title>n8:e&#45;&gt;c21:p13:w</title>
<path fill="none" stroke="black" stroke-width="3" d="M121.088,-399.619C358.241,-399.619 384.346,-590.108 615.522,-595.502"/>
<polygon fill="black" stroke="black" stroke-width="3" points="615.572,-599.003 625.612,-595.619 615.653,-592.004 615.572,-599.003"/>
</g>
<!-- n8&#45;&gt;x7 -->
<g id="edge25" class="edge"><title>n8:e&#45;&gt;x7:s1:w</title>
<path fill="none" stroke="black" stroke-width="3" d="M121.088,-399.619C196.472,-399.619 131.569,-290.449 192.175,-245.619 348.29,-130.144 432.16,-183.706 622.582,-185.57"/>
<polygon fill="black" stroke="black" stroke-width="3" points="622.595,-189.07 632.612,-185.619 622.629,-182.07 622.595,-189.07"/>
</g>
<!-- n9 -->
<g id="node9" class="node"><title>n9</title>
<polygon fill="none" stroke="black" points="1758.64,-467.163 1758.64,-482.075 1730.95,-492.619 1691.79,-492.619 1664.11,-482.075 1664.11,-467.163 1691.79,-456.619 1730.95,-456.619 1758.64,-467.163"/>
<text text-anchor="middle" x="1711.37" y="-470.919" font-family="Times,serif" font-size="14.00">output_0</text>
</g>
<!-- n10 -->
<g id="node10" class="node"><title>n10</title>
<polygon fill="none" stroke="black" points="136.368,-60.1634 136.368,-75.075 102.228,-85.6192 53.9473,-85.6192 19.8077,-75.075 19.8077,-60.1634 53.9473,-49.6192 102.228,-49.6192 136.368,-60.1634"/>
<text text-anchor="middle" x="78.0877" y="-63.9192" font-family="Times,serif" font-size="14.00">system1000</text>
</g>
<!-- c26 -->
<g id="node26" class="node"><title>c26</title>
<polygon fill="none" stroke="black" points="802.254,-113.119 802.254,-182.119 928.254,-182.119 928.254,-113.119 802.254,-113.119"/>
<text text-anchor="middle" x="828.754" y="-166.919" font-family="Times,serif" font-size="14.00">ARST</text>
<polyline fill="none" stroke="black" points="802.254,-159.119 855.254,-159.119 "/>
<text text-anchor="middle" x="828.754" y="-143.919" font-family="Times,serif" font-size="14.00">CLK</text>
<polyline fill="none" stroke="black" points="802.254,-136.119 855.254,-136.119 "/>
<text text-anchor="middle" x="828.754" y="-120.919" font-family="Times,serif" font-size="14.00">D</text>
<polyline fill="none" stroke="black" points="855.254,-113.119 855.254,-182.119 "/>
<text text-anchor="middle" x="878.254" y="-151.419" font-family="Times,serif" font-size="14.00">$408</text>
<text text-anchor="middle" x="878.254" y="-136.419" font-family="Times,serif" font-size="14.00">$adff</text>
<polyline fill="none" stroke="black" points="901.254,-113.119 901.254,-182.119 "/>
<text text-anchor="middle" x="914.754" y="-143.919" font-family="Times,serif" font-size="14.00">Q</text>
</g>
<!-- n10&#45;&gt;c26 -->
<g id="edge10" class="edge"><title>n10:e&#45;&gt;c26:p23:w</title>
<path fill="none" stroke="black" d="M137.088,-67.6192C416.92,-67.6192 523.242,47.1309 766.254,-91.6192 788.335,-104.227 777.2,-136.523 792.41,-145.356"/>
<polygon fill="black" stroke="black" points="791.724,-148.79 802.254,-147.619 793.292,-141.968 791.724,-148.79"/>
</g>
<!-- n11 -->
<g id="node11" class="node"><title>n11</title>
<polygon fill="none" stroke="black" points="156.263,-114.163 156.263,-129.075 110.469,-139.619 45.7063,-139.619 -0.087767,-129.075 -0.087767,-114.163 45.7063,-103.619 110.469,-103.619 156.263,-114.163"/>
<text text-anchor="middle" x="78.0877" y="-117.919" font-family="Times,serif" font-size="14.00">system1000_rstn</text>
</g>
<!-- n11&#45;&gt;c26 -->
<g id="edge11" class="edge"><title>n11:e&#45;&gt;c26:p22:w</title>
<path fill="none" stroke="black" d="M156.175,-121.619C427.453,-121.619 512.648,-44.3102 766.254,-140.619 781.769,-146.511 782.192,-162.063 792.262,-168.138"/>
<polygon fill="black" stroke="black" points="791.705,-171.606 802.254,-170.619 793.392,-164.812 791.705,-171.606"/>
</g>
<!-- c15&#45;&gt;n6 -->
<g id="edge20" class="edge"><title>c15:p14:e&#45;&gt;n6:w</title>
<path fill="none" stroke="black" stroke-width="3" d="M1278.25,-531.619C1292.4,-531.619 1295.25,-519.655 1304.28,-514.234"/>
<polygon fill="black" stroke="black" stroke-width="3" points="1305.46,-517.542 1314.25,-511.619 1303.69,-510.771 1305.46,-517.542"/>
</g>
<!-- c16&#45;&gt;n7 -->
<g id="edge22" class="edge"><title>c16:p14:e&#45;&gt;n7:w</title>
<path fill="none" stroke="black" stroke-width="3" d="M1278.25,-398.619C1297.6,-398.619 1293.55,-424.863 1304.5,-434.294"/>
<polygon fill="black" stroke="black" stroke-width="3" points="1303.65,-437.705 1314.25,-437.619 1305.91,-431.079 1303.65,-437.705"/>
</g>
<!-- c17&#45;&gt;n9 -->
<g id="edge26" class="edge"><title>c17:p14:e&#45;&gt;n9:w</title>
<path fill="none" stroke="black" stroke-width="3" d="M1628.24,-474.619C1640.24,-474.619 1645.49,-474.619 1654.12,-474.619"/>
<polygon fill="black" stroke="black" stroke-width="3" points="1654.24,-478.119 1664.24,-474.619 1654.24,-471.119 1654.24,-478.119"/>
</g>
<!-- v0 -->
<g id="node15" class="node"><title>v0</title>
<ellipse fill="none" stroke="black" cx="674.612" cy="-327.619" rx="91.784" ry="18"/>
<text text-anchor="middle" x="674.612" y="-323.919" font-family="Times,serif" font-size="14.00">16&#39;0000000000001001</text>
</g>
<!-- c18 -->
<g id="node16" class="node"><title>c18</title>
<polygon fill="none" stroke="black" points="817.254,-292.619 817.254,-338.619 913.254,-338.619 913.254,-292.619 817.254,-292.619"/>
<text text-anchor="middle" x="830.254" y="-323.419" font-family="Times,serif" font-size="14.00">A</text>
<polyline fill="none" stroke="black" points="817.254,-315.619 843.254,-315.619 "/>
<text text-anchor="middle" x="830.254" y="-300.419" font-family="Times,serif" font-size="14.00">B</text>
<polyline fill="none" stroke="black" points="843.254,-292.619 843.254,-338.619 "/>
<text text-anchor="middle" x="865.254" y="-319.419" font-family="Times,serif" font-size="14.00">$29</text>
<text text-anchor="middle" x="865.254" y="-304.419" font-family="Times,serif" font-size="14.00">$mul</text>
<polyline fill="none" stroke="black" points="887.254,-292.619 887.254,-338.619 "/>
<text text-anchor="middle" x="900.254" y="-311.919" font-family="Times,serif" font-size="14.00">Y</text>
</g>
<!-- v0&#45;&gt;c18 -->
<g id="edge27" class="edge"><title>v0:e&#45;&gt;c18:p12:w</title>
<path fill="none" stroke="black" stroke-width="3" d="M766.254,-327.619C784.657,-327.619 791.629,-327.619 806.103,-327.619"/>
<polygon fill="black" stroke="black" stroke-width="3" points="806.254,-331.119 816.254,-327.619 806.254,-324.119 806.254,-331.119"/>
</g>
<!-- c18&#45;&gt;n5 -->
<g id="edge18" class="edge"><title>c18:p14:e&#45;&gt;n5:w</title>
<path fill="none" stroke="black" stroke-width="3" d="M914.254,-315.619C934.402,-315.619 938.962,-330.294 953.995,-335.109"/>
<polygon fill="black" stroke="black" stroke-width="3" points="953.851,-338.625 964.254,-336.619 954.87,-331.7 953.851,-338.625"/>
</g>
<!-- x1&#45;&gt;c18 -->
<g id="edge1" class="edge"><title>x1:e&#45;&gt;c18:p13:w</title>
<path fill="none" stroke="black" stroke-width="3" d="M726.018,-273.385C759.24,-277.674 770.744,-298.661 804.057,-302.88"/>
<polygon fill="none" stroke="black" stroke-width="3" points="725.589,-273.359 719.354,-276.982 713.612,-272.619 719.847,-268.997 725.589,-273.359"/>
<polygon fill="none" stroke="black" stroke-width="3" points="804.276,-302.893 810.507,-299.263 816.254,-303.619 810.023,-307.249 804.276,-302.893"/>
</g>
<!-- v2 -->
<g id="node18" class="node"><title>v2</title>
<ellipse fill="none" stroke="black" cx="674.612" cy="-437.619" rx="90.9839" ry="18"/>
<text text-anchor="middle" x="674.612" y="-433.919" font-family="Times,serif" font-size="14.00">16&#39;0000000000000111</text>
</g>
<!-- c19 -->
<g id="node19" class="node"><title>c19</title>
<polygon fill="none" stroke="black" points="817.254,-387.619 817.254,-433.619 913.254,-433.619 913.254,-387.619 817.254,-387.619"/>
<text text-anchor="middle" x="830.254" y="-418.419" font-family="Times,serif" font-size="14.00">A</text>
<polyline fill="none" stroke="black" points="817.254,-410.619 843.254,-410.619 "/>
<text text-anchor="middle" x="830.254" y="-395.419" font-family="Times,serif" font-size="14.00">B</text>
<polyline fill="none" stroke="black" points="843.254,-387.619 843.254,-433.619 "/>
<text text-anchor="middle" x="865.254" y="-414.419" font-family="Times,serif" font-size="14.00">$30</text>
<text text-anchor="middle" x="865.254" y="-399.419" font-family="Times,serif" font-size="14.00">$mul</text>
<polyline fill="none" stroke="black" points="887.254,-387.619 887.254,-433.619 "/>
<text text-anchor="middle" x="900.254" y="-406.919" font-family="Times,serif" font-size="14.00">Y</text>
</g>
<!-- v2&#45;&gt;c19 -->
<g id="edge28" class="edge"><title>v2:e&#45;&gt;c19:p12:w</title>
<path fill="none" stroke="black" stroke-width="3" d="M766.254,-437.619C785.648,-437.619 791.345,-427.137 806.244,-423.698"/>
<polygon fill="black" stroke="black" stroke-width="3" points="806.686,-427.171 816.254,-422.619 805.936,-420.211 806.686,-427.171"/>
</g>
<!-- c19&#45;&gt;n4 -->
<g id="edge16" class="edge"><title>c19:p14:e&#45;&gt;n4:w</title>
<path fill="none" stroke="black" stroke-width="3" d="M914.254,-410.619C932.657,-410.619 939.629,-410.619 954.103,-410.619"/>
<polygon fill="black" stroke="black" stroke-width="3" points="954.254,-414.119 964.254,-410.619 954.254,-407.119 954.254,-414.119"/>
</g>
<!-- x3&#45;&gt;c19 -->
<g id="edge2" class="edge"><title>x3:e&#45;&gt;c19:p13:w</title>
<path fill="none" stroke="black" stroke-width="3" d="M728.818,-383.047C759.919,-385.313 772.873,-395.895 803.927,-398.182"/>
<polygon fill="none" stroke="black" stroke-width="3" points="728.605,-383.04 722.468,-386.827 716.612,-382.619 722.748,-378.832 728.605,-383.04"/>
<polygon fill="none" stroke="black" stroke-width="3" points="804.261,-398.194 810.399,-394.409 816.254,-398.619 810.116,-402.404 804.261,-398.194"/>
</g>
<!-- v4 -->
<g id="node21" class="node"><title>v4</title>
<ellipse fill="none" stroke="black" cx="674.612" cy="-547.619" rx="91.784" ry="18"/>
<text text-anchor="middle" x="674.612" y="-543.919" font-family="Times,serif" font-size="14.00">16&#39;0000000000000101</text>
</g>
<!-- c20 -->
<g id="node22" class="node"><title>c20</title>
<polygon fill="none" stroke="black" points="817.254,-496.619 817.254,-542.619 913.254,-542.619 913.254,-496.619 817.254,-496.619"/>
<text text-anchor="middle" x="830.254" y="-527.419" font-family="Times,serif" font-size="14.00">A</text>
<polyline fill="none" stroke="black" points="817.254,-519.619 843.254,-519.619 "/>
<text text-anchor="middle" x="830.254" y="-504.419" font-family="Times,serif" font-size="14.00">B</text>
<polyline fill="none" stroke="black" points="843.254,-496.619 843.254,-542.619 "/>
<text text-anchor="middle" x="865.254" y="-523.419" font-family="Times,serif" font-size="14.00">$31</text>
<text text-anchor="middle" x="865.254" y="-508.419" font-family="Times,serif" font-size="14.00">$mul</text>
<polyline fill="none" stroke="black" points="887.254,-496.619 887.254,-542.619 "/>
<text text-anchor="middle" x="900.254" y="-515.919" font-family="Times,serif" font-size="14.00">Y</text>
</g>
<!-- v4&#45;&gt;c20 -->
<g id="edge29" class="edge"><title>v4:e&#45;&gt;c20:p12:w</title>
<path fill="none" stroke="black" stroke-width="3" d="M766.254,-547.619C785.758,-547.619 791.289,-536.439 806.208,-532.77"/>
<polygon fill="black" stroke="black" stroke-width="3" points="806.717,-536.235 816.254,-531.619 805.92,-529.28 806.717,-536.235"/>
</g>
<!-- c20&#45;&gt;n3 -->
<g id="edge14" class="edge"><title>c20:p14:e&#45;&gt;n3:w</title>
<path fill="none" stroke="black" stroke-width="3" d="M914.254,-519.619C932.657,-519.619 939.629,-519.619 954.103,-519.619"/>
<polygon fill="black" stroke="black" stroke-width="3" points="954.254,-523.119 964.254,-519.619 954.254,-516.119 954.254,-523.119"/>
</g>
<!-- x5&#45;&gt;c20 -->
<g id="edge3" class="edge"><title>x5:e&#45;&gt;c20:p13:w</title>
<path fill="none" stroke="black" stroke-width="3" d="M728.804,-493.02C759.878,-495.145 772.913,-505.065 803.942,-507.21"/>
<polygon fill="none" stroke="black" stroke-width="3" points="728.605,-493.014 722.477,-496.814 716.612,-492.619 722.74,-488.819 728.605,-493.014"/>
<polygon fill="none" stroke="black" stroke-width="3" points="804.26,-507.22 810.39,-503.422 816.254,-507.619 810.124,-511.418 804.26,-507.22"/>
</g>
<!-- v6 -->
<g id="node24" class="node"><title>v6</title>
<ellipse fill="none" stroke="black" cx="369.573" cy="-619.619" rx="91.784" ry="18"/>
<text text-anchor="middle" x="369.573" y="-615.919" font-family="Times,serif" font-size="14.00">16&#39;0000000000000011</text>
</g>
<!-- v6&#45;&gt;c21 -->
<g id="edge30" class="edge"><title>v6:e&#45;&gt;c21:p12:w</title>
<path fill="none" stroke="black" stroke-width="3" d="M462.573,-619.619C531.496,-619.619 551.251,-619.619 615.373,-619.619"/>
<polygon fill="black" stroke="black" stroke-width="3" points="615.612,-623.119 625.612,-619.619 615.612,-616.119 615.612,-623.119"/>
</g>
<!-- c21&#45;&gt;n2 -->
<g id="edge12" class="edge"><title>c21:p14:e&#45;&gt;n2:w</title>
<path fill="none" stroke="black" stroke-width="3" d="M723.612,-607.619C827.72,-607.619 854.951,-583.268 954.104,-581.698"/>
<polygon fill="black" stroke="black" stroke-width="3" points="954.281,-585.197 964.254,-581.619 954.227,-578.197 954.281,-585.197"/>
</g>
<!-- c26&#45;&gt;n1 -->
<g id="edge5" class="edge"><title>c26:p25:e&#45;&gt;n1:w</title>
<path fill="none" stroke="black" stroke-width="3" d="M929.254,-147.619C944.816,-147.619 938.408,-170.826 928.254,-182.619 826.524,-300.772 716.521,-164.163 582.97,-244.619 560.733,-258.016 570.308,-279.248 546.97,-290.619 404.973,-359.804 306.319,-399.168 191.573,-290.619 189.208,-288.382 187.277,-284.992 186.355,-281.755"/>
<polygon fill="black" stroke="black" stroke-width="3" points="189.559,-283.165 190.573,-272.619 183.204,-280.232 189.559,-283.165"/>
</g>
<!-- x7&#45;&gt;c26 -->
<g id="edge4" class="edge"><title>x7:e&#45;&gt;c26:p24:w</title>
<path fill="none" stroke="black" stroke-width="3" d="M728.649,-172.206C756.909,-165.082 761.947,-133.176 790.194,-126.039"/>
<polygon fill="none" stroke="black" stroke-width="3" points="728.53,-172.219 723.038,-176.892 716.612,-173.619 722.104,-168.947 728.53,-172.219"/>
<polygon fill="none" stroke="black" stroke-width="3" points="790.336,-126.022 795.827,-121.348 802.254,-124.619 796.762,-129.293 790.336,-126.022"/>
</g>
</g>
</svg>
