<?xml version="1.0" encoding="UTF-8" standalone="no"?>
<!DOCTYPE svg PUBLIC "-//W3C//DTD SVG 1.1//EN"
 "http://www.w3.org/Graphics/SVG/1.1/DTD/svg11.dtd">
<!-- Generated by graphviz version 2.38.0 (20140413.2041)
 -->
<!-- Title: LinearPhase_topEntity Pages: 1 -->
<svg width="2964pt" height="795pt"
 viewBox="0.00 0.00 2963.59 794.78" xmlns="http://www.w3.org/2000/svg" xmlns:xlink="http://www.w3.org/1999/xlink">
<g id="graph0" class="graph" transform="scale(1 1) rotate(0) translate(4 790.777)">
<title>LinearPhase_topEntity</title>
<polygon fill="white" stroke="none" points="-4,4 -4,-790.777 2959.59,-790.777 2959.59,4 -4,4"/>
<text text-anchor="middle" x="1477.79" y="-7.8" font-family="Times,serif" font-size="14.00">LinearPhase_topEntity</text>
<!-- n1 -->
<g id="node1" class="node"><title>n1</title>
<polygon fill="none" stroke="black" points="399.92,-472 360.373,-454 399.92,-436 439.468,-454 399.92,-472"/>
<text text-anchor="middle" x="399.92" y="-450.3" font-family="Times,serif" font-size="14.00">dout</text>
</g>
<!-- c33 -->
<g id="node29" class="node"><title>c33</title>
<polygon fill="none" stroke="black" points="489.944,-506 489.944,-552 588.944,-552 588.944,-506 489.944,-506"/>
<text text-anchor="middle" x="503.444" y="-536.8" font-family="Times,serif" font-size="14.00">A</text>
<polyline fill="none" stroke="black" points="489.944,-529 516.944,-529 "/>
<text text-anchor="middle" x="503.444" y="-513.8" font-family="Times,serif" font-size="14.00">B</text>
<polyline fill="none" stroke="black" points="516.944,-506 516.944,-552 "/>
<text text-anchor="middle" x="539.444" y="-532.8" font-family="Times,serif" font-size="14.00">$10</text>
<text text-anchor="middle" x="539.444" y="-517.8" font-family="Times,serif" font-size="14.00">$add</text>
<polyline fill="none" stroke="black" points="561.944,-506 561.944,-552 "/>
<text text-anchor="middle" x="575.444" y="-525.3" font-family="Times,serif" font-size="14.00">Y</text>
</g>
<!-- n1&#45;&gt;c33 -->
<g id="edge2" class="edge"><title>n1:e&#45;&gt;c33:p20:w</title>
<path fill="none" stroke="black" stroke-width="3" d="M439.444,-454C479.834,-454 450.531,-526.069 478.398,-539.019"/>
<polygon fill="black" stroke="black" stroke-width="3" points="477.956,-542.5 488.444,-541 479.31,-535.632 477.956,-542.5"/>
</g>
<!-- c37 -->
<g id="node33" class="node"><title>c37</title>
<polygon fill="none" stroke="black" points="475.444,-418.5 475.444,-487.5 603.444,-487.5 603.444,-418.5 475.444,-418.5"/>
<text text-anchor="middle" x="502.444" y="-472.3" font-family="Times,serif" font-size="14.00">ARST</text>
<polyline fill="none" stroke="black" points="475.444,-464.5 529.444,-464.5 "/>
<text text-anchor="middle" x="502.444" y="-449.3" font-family="Times,serif" font-size="14.00">CLK</text>
<polyline fill="none" stroke="black" points="475.444,-441.5 529.444,-441.5 "/>
<text text-anchor="middle" x="502.444" y="-426.3" font-family="Times,serif" font-size="14.00">D</text>
<polyline fill="none" stroke="black" points="529.444,-418.5 529.444,-487.5 "/>
<text text-anchor="middle" x="552.944" y="-456.8" font-family="Times,serif" font-size="14.00">$16</text>
<text text-anchor="middle" x="552.944" y="-441.8" font-family="Times,serif" font-size="14.00">$adff</text>
<polyline fill="none" stroke="black" points="576.444,-418.5 576.444,-487.5 "/>
<text text-anchor="middle" x="589.944" y="-449.3" font-family="Times,serif" font-size="14.00">Q</text>
</g>
<!-- n1&#45;&gt;c37 -->
<g id="edge3" class="edge"><title>n1:e&#45;&gt;c37:p28:w</title>
<path fill="none" stroke="black" stroke-width="3" d="M439.444,-454C454.617,-454 456.287,-439.057 465.763,-432.753"/>
<polygon fill="black" stroke="black" stroke-width="3" points="466.783,-436.102 475.444,-430 464.868,-429.369 466.783,-436.102"/>
</g>
<!-- n2 -->
<g id="node2" class="node"><title>n2</title>
<polygon fill="none" stroke="black" points="1720.81,-294 1693.81,-276 1720.81,-258 1747.81,-276 1720.81,-294"/>
<text text-anchor="middle" x="1720.81" y="-272.3" font-family="Times,serif" font-size="14.00">ds</text>
</g>
<!-- c31 -->
<g id="node27" class="node"><title>c31</title>
<polygon fill="none" stroke="black" points="1783.81,-191 1783.81,-237 1882.81,-237 1882.81,-191 1783.81,-191"/>
<text text-anchor="middle" x="1797.31" y="-221.8" font-family="Times,serif" font-size="14.00">A</text>
<polyline fill="none" stroke="black" points="1783.81,-214 1810.81,-214 "/>
<text text-anchor="middle" x="1797.31" y="-198.8" font-family="Times,serif" font-size="14.00">B</text>
<polyline fill="none" stroke="black" points="1810.81,-191 1810.81,-237 "/>
<text text-anchor="middle" x="1833.31" y="-217.8" font-family="Times,serif" font-size="14.00">$10</text>
<text text-anchor="middle" x="1833.31" y="-202.8" font-family="Times,serif" font-size="14.00">$add</text>
<polyline fill="none" stroke="black" points="1855.81,-191 1855.81,-237 "/>
<text text-anchor="middle" x="1869.31" y="-210.3" font-family="Times,serif" font-size="14.00">Y</text>
</g>
<!-- n2&#45;&gt;c31 -->
<g id="edge38" class="edge"><title>n2:e&#45;&gt;c31:p20:w</title>
<path fill="none" stroke="black" stroke-width="3" d="M1747.81,-276C1770.91,-276 1761.16,-240.404 1774,-229.281"/>
<polygon fill="black" stroke="black" stroke-width="3" points="1775.44,-232.491 1783.81,-226 1773.21,-225.853 1775.44,-232.491"/>
</g>
<!-- n3 -->
<g id="node3" class="node"><title>n3</title>
<polygon fill="none" stroke="black" points="2018.25,-205 1974.85,-187 2018.25,-169 2061.65,-187 2018.25,-205"/>
<text text-anchor="middle" x="2018.25" y="-183.3" font-family="Times,serif" font-size="14.00">result</text>
</g>
<!-- c23 -->
<g id="node21" class="node"><title>c23</title>
<polygon fill="none" stroke="black" points="2167.19,-127 2167.19,-173 2268.19,-173 2268.19,-127 2167.19,-127"/>
<text text-anchor="middle" x="2180.69" y="-157.8" font-family="Times,serif" font-size="14.00">A</text>
<polyline fill="none" stroke="black" points="2167.19,-150 2194.19,-150 "/>
<text text-anchor="middle" x="2180.69" y="-134.8" font-family="Times,serif" font-size="14.00">B</text>
<polyline fill="none" stroke="black" points="2194.19,-127 2194.19,-173 "/>
<text text-anchor="middle" x="2217.69" y="-153.8" font-family="Times,serif" font-size="14.00">$3</text>
<text text-anchor="middle" x="2217.69" y="-138.8" font-family="Times,serif" font-size="14.00">$mul</text>
<polyline fill="none" stroke="black" points="2241.19,-127 2241.19,-173 "/>
<text text-anchor="middle" x="2254.69" y="-146.3" font-family="Times,serif" font-size="14.00">Y</text>
</g>
<!-- n3&#45;&gt;c23 -->
<g id="edge40" class="edge"><title>n3:e&#45;&gt;c23:p20:w</title>
<path fill="none" stroke="black" stroke-width="3" d="M2063.25,-187C2106.45,-187 2117.23,-165.754 2155.37,-162.434"/>
<polygon fill="black" stroke="black" stroke-width="3" points="2155.85,-165.917 2165.69,-162 2155.55,-158.923 2155.85,-165.917"/>
</g>
<!-- n4 -->
<g id="node4" class="node"><title>n4</title>
<polygon fill="none" stroke="black" points="1066.63,-340 1039.63,-322 1066.63,-304 1093.63,-322 1066.63,-340"/>
<text text-anchor="middle" x="1066.63" y="-318.3" font-family="Times,serif" font-size="14.00">ds</text>
</g>
<!-- c32 -->
<g id="node28" class="node"><title>c32</title>
<polygon fill="none" stroke="black" points="1144.13,-268 1144.13,-314 1243.13,-314 1243.13,-268 1144.13,-268"/>
<text text-anchor="middle" x="1157.63" y="-298.8" font-family="Times,serif" font-size="14.00">A</text>
<polyline fill="none" stroke="black" points="1144.13,-291 1171.13,-291 "/>
<text text-anchor="middle" x="1157.63" y="-275.8" font-family="Times,serif" font-size="14.00">B</text>
<polyline fill="none" stroke="black" points="1171.13,-268 1171.13,-314 "/>
<text text-anchor="middle" x="1193.63" y="-294.8" font-family="Times,serif" font-size="14.00">$10</text>
<text text-anchor="middle" x="1193.63" y="-279.8" font-family="Times,serif" font-size="14.00">$add</text>
<polyline fill="none" stroke="black" points="1216.13,-268 1216.13,-314 "/>
<text text-anchor="middle" x="1229.63" y="-287.3" font-family="Times,serif" font-size="14.00">Y</text>
</g>
<!-- n4&#45;&gt;c32 -->
<g id="edge42" class="edge"><title>n4:e&#45;&gt;c32:p20:w</title>
<path fill="none" stroke="black" stroke-width="3" d="M1093.63,-322C1113.15,-322 1117.95,-308.723 1132.65,-304.366"/>
<polygon fill="black" stroke="black" stroke-width="3" points="1133.19,-307.824 1142.63,-303 1132.24,-300.889 1133.19,-307.824"/>
</g>
<!-- c35 -->
<g id="node31" class="node"><title>c35</title>
<polygon fill="none" stroke="black" points="1129.63,-333.5 1129.63,-402.5 1257.63,-402.5 1257.63,-333.5 1129.63,-333.5"/>
<text text-anchor="middle" x="1156.63" y="-387.3" font-family="Times,serif" font-size="14.00">ARST</text>
<polyline fill="none" stroke="black" points="1129.63,-379.5 1183.63,-379.5 "/>
<text text-anchor="middle" x="1156.63" y="-364.3" font-family="Times,serif" font-size="14.00">CLK</text>
<polyline fill="none" stroke="black" points="1129.63,-356.5 1183.63,-356.5 "/>
<text text-anchor="middle" x="1156.63" y="-341.3" font-family="Times,serif" font-size="14.00">D</text>
<polyline fill="none" stroke="black" points="1183.63,-333.5 1183.63,-402.5 "/>
<text text-anchor="middle" x="1207.13" y="-371.8" font-family="Times,serif" font-size="14.00">$16</text>
<text text-anchor="middle" x="1207.13" y="-356.8" font-family="Times,serif" font-size="14.00">$adff</text>
<polyline fill="none" stroke="black" points="1230.63,-333.5 1230.63,-402.5 "/>
<text text-anchor="middle" x="1244.13" y="-364.3" font-family="Times,serif" font-size="14.00">Q</text>
</g>
<!-- n4&#45;&gt;c35 -->
<g id="edge43" class="edge"><title>n4:e&#45;&gt;c35:p28:w</title>
<path fill="none" stroke="black" stroke-width="3" d="M1093.63,-322C1108.46,-322 1110.5,-336.038 1119.74,-342.18"/>
<polygon fill="black" stroke="black" stroke-width="3" points="1119.05,-345.623 1129.63,-345 1120.97,-338.892 1119.05,-345.623"/>
</g>
<!-- n5 -->
<g id="node5" class="node"><title>n5</title>
<polygon fill="none" stroke="black" points="1393.72,-673 1350.32,-655 1393.72,-637 1437.12,-655 1393.72,-673"/>
<text text-anchor="middle" x="1393.72" y="-651.3" font-family="Times,serif" font-size="14.00">result</text>
</g>
<!-- c24 -->
<g id="node23" class="node"><title>c24</title>
<polygon fill="none" stroke="black" points="1543.31,-597 1543.31,-643 1644.31,-643 1644.31,-597 1543.31,-597"/>
<text text-anchor="middle" x="1556.81" y="-627.8" font-family="Times,serif" font-size="14.00">A</text>
<polyline fill="none" stroke="black" points="1543.31,-620 1570.31,-620 "/>
<text text-anchor="middle" x="1556.81" y="-604.8" font-family="Times,serif" font-size="14.00">B</text>
<polyline fill="none" stroke="black" points="1570.31,-597 1570.31,-643 "/>
<text text-anchor="middle" x="1593.81" y="-623.8" font-family="Times,serif" font-size="14.00">$4</text>
<text text-anchor="middle" x="1593.81" y="-608.8" font-family="Times,serif" font-size="14.00">$mul</text>
<polyline fill="none" stroke="black" points="1617.31,-597 1617.31,-643 "/>
<text text-anchor="middle" x="1630.81" y="-616.3" font-family="Times,serif" font-size="14.00">Y</text>
</g>
<!-- n5&#45;&gt;c24 -->
<g id="edge45" class="edge"><title>n5:e&#45;&gt;c24:p20:w</title>
<path fill="none" stroke="black" stroke-width="3" d="M1438.72,-655C1481.99,-655 1493.2,-635.453 1531.46,-632.399"/>
<polygon fill="black" stroke="black" stroke-width="3" points="1531.95,-635.883 1541.81,-632 1531.68,-628.888 1531.95,-635.883"/>
</g>
<!-- n6 -->
<g id="node6" class="node"><title>n6</title>
<polygon fill="none" stroke="black" points="739.535,-679 696.133,-661 739.535,-643 782.937,-661 739.535,-679"/>
<text text-anchor="middle" x="739.535" y="-657.3" font-family="Times,serif" font-size="14.00">result</text>
</g>
<!-- c25 -->
<g id="node25" class="node"><title>c25</title>
<polygon fill="none" stroke="black" points="889.126,-596 889.126,-642 990.126,-642 990.126,-596 889.126,-596"/>
<text text-anchor="middle" x="902.626" y="-626.8" font-family="Times,serif" font-size="14.00">A</text>
<polyline fill="none" stroke="black" points="889.126,-619 916.126,-619 "/>
<text text-anchor="middle" x="902.626" y="-603.8" font-family="Times,serif" font-size="14.00">B</text>
<polyline fill="none" stroke="black" points="916.126,-596 916.126,-642 "/>
<text text-anchor="middle" x="939.626" y="-622.8" font-family="Times,serif" font-size="14.00">$5</text>
<text text-anchor="middle" x="939.626" y="-607.8" font-family="Times,serif" font-size="14.00">$mul</text>
<polyline fill="none" stroke="black" points="963.126,-596 963.126,-642 "/>
<text text-anchor="middle" x="976.626" y="-615.3" font-family="Times,serif" font-size="14.00">Y</text>
</g>
<!-- n6&#45;&gt;c25 -->
<g id="edge47" class="edge"><title>n6:e&#45;&gt;c25:p20:w</title>
<path fill="none" stroke="black" stroke-width="3" d="M784.535,-661C828.712,-661 838.55,-635.288 877.63,-631.471"/>
<polygon fill="black" stroke="black" stroke-width="3" points="877.802,-634.967 887.626,-631 877.472,-627.975 877.802,-634.967"/>
</g>
<!-- n7 -->
<g id="node7" class="node"><title>n7</title>
<polygon fill="none" stroke="black" points="1393.72,-344 1335.9,-326 1393.72,-308 1451.53,-326 1393.72,-344"/>
<text text-anchor="middle" x="1393.72" y="-322.3" font-family="Times,serif" font-size="14.00">app_arg</text>
</g>
<!-- c34 -->
<g id="node30" class="node"><title>c34</title>
<polygon fill="none" stroke="black" points="1529.81,-271.5 1529.81,-340.5 1657.81,-340.5 1657.81,-271.5 1529.81,-271.5"/>
<text text-anchor="middle" x="1556.81" y="-325.3" font-family="Times,serif" font-size="14.00">ARST</text>
<polyline fill="none" stroke="black" points="1529.81,-317.5 1583.81,-317.5 "/>
<text text-anchor="middle" x="1556.81" y="-302.3" font-family="Times,serif" font-size="14.00">CLK</text>
<polyline fill="none" stroke="black" points="1529.81,-294.5 1583.81,-294.5 "/>
<text text-anchor="middle" x="1556.81" y="-279.3" font-family="Times,serif" font-size="14.00">D</text>
<polyline fill="none" stroke="black" points="1583.81,-271.5 1583.81,-340.5 "/>
<text text-anchor="middle" x="1607.31" y="-309.8" font-family="Times,serif" font-size="14.00">$15</text>
<text text-anchor="middle" x="1607.31" y="-294.8" font-family="Times,serif" font-size="14.00">$adff</text>
<polyline fill="none" stroke="black" points="1630.81,-271.5 1630.81,-340.5 "/>
<text text-anchor="middle" x="1644.31" y="-302.3" font-family="Times,serif" font-size="14.00">Q</text>
</g>
<!-- n7&#45;&gt;c34 -->
<g id="edge49" class="edge"><title>n7:e&#45;&gt;c34:p28:w</title>
<path fill="none" stroke="black" stroke-width="3" d="M1452.72,-326C1488.27,-326 1490.48,-290.685 1519.78,-284.063"/>
<polygon fill="black" stroke="black" stroke-width="3" points="1520.23,-287.534 1529.81,-283 1519.5,-280.573 1520.23,-287.534"/>
</g>
<!-- n8 -->
<g id="node8" class="node"><title>n8</title>
<polygon fill="none" stroke="black" points="739.535,-416 681.721,-398 739.535,-380 797.349,-398 739.535,-416"/>
<text text-anchor="middle" x="739.535" y="-394.3" font-family="Times,serif" font-size="14.00">app_arg</text>
</g>
<!-- c36 -->
<g id="node32" class="node"><title>c36</title>
<polygon fill="none" stroke="black" points="875.626,-405.5 875.626,-474.5 1003.63,-474.5 1003.63,-405.5 875.626,-405.5"/>
<text text-anchor="middle" x="902.626" y="-459.3" font-family="Times,serif" font-size="14.00">ARST</text>
<polyline fill="none" stroke="black" points="875.626,-451.5 929.626,-451.5 "/>
<text text-anchor="middle" x="902.626" y="-436.3" font-family="Times,serif" font-size="14.00">CLK</text>
<polyline fill="none" stroke="black" points="875.626,-428.5 929.626,-428.5 "/>
<text text-anchor="middle" x="902.626" y="-413.3" font-family="Times,serif" font-size="14.00">D</text>
<polyline fill="none" stroke="black" points="929.626,-405.5 929.626,-474.5 "/>
<text text-anchor="middle" x="953.126" y="-443.8" font-family="Times,serif" font-size="14.00">$15</text>
<text text-anchor="middle" x="953.126" y="-428.8" font-family="Times,serif" font-size="14.00">$adff</text>
<polyline fill="none" stroke="black" points="976.626,-405.5 976.626,-474.5 "/>
<text text-anchor="middle" x="990.126" y="-436.3" font-family="Times,serif" font-size="14.00">Q</text>
</g>
<!-- n8&#45;&gt;c36 -->
<g id="edge51" class="edge"><title>n8:e&#45;&gt;c36:p28:w</title>
<path fill="none" stroke="black" stroke-width="3" d="M798.535,-398C830.101,-398 838.644,-413.204 865.353,-416.411"/>
<polygon fill="black" stroke="black" stroke-width="3" points="865.442,-419.921 875.626,-417 865.843,-412.933 865.442,-419.921"/>
</g>
<!-- n9 -->
<g id="node9" class="node"><title>n9</title>
<polygon fill="none" stroke="black" points="2344.69,-168 2317.69,-150 2344.69,-132 2371.69,-150 2344.69,-168"/>
<text text-anchor="middle" x="2344.69" y="-146.3" font-family="Times,serif" font-size="14.00">n</text>
</g>
<!-- c38 -->
<g id="node34" class="node"><title>c38</title>
<polygon fill="none" stroke="black" points="2407.69,-139 2407.69,-185 2506.69,-185 2506.69,-139 2407.69,-139"/>
<text text-anchor="middle" x="2421.19" y="-169.8" font-family="Times,serif" font-size="14.00">A</text>
<polyline fill="none" stroke="black" points="2407.69,-162 2434.69,-162 "/>
<text text-anchor="middle" x="2421.19" y="-146.8" font-family="Times,serif" font-size="14.00">B</text>
<polyline fill="none" stroke="black" points="2434.69,-139 2434.69,-185 "/>
<text text-anchor="middle" x="2457.19" y="-165.8" font-family="Times,serif" font-size="14.00">$11</text>
<text text-anchor="middle" x="2457.19" y="-150.8" font-family="Times,serif" font-size="14.00">$add</text>
<polyline fill="none" stroke="black" points="2479.69,-139 2479.69,-185 "/>
<text text-anchor="middle" x="2493.19" y="-158.3" font-family="Times,serif" font-size="14.00">Y</text>
</g>
<!-- n9&#45;&gt;c38 -->
<g id="edge53" class="edge"><title>n9:e&#45;&gt;c38:p21:w</title>
<path fill="none" stroke="black" stroke-width="3" d="M2371.69,-150C2383.69,-150 2388.94,-150 2397.57,-150"/>
<polygon fill="black" stroke="black" stroke-width="3" points="2397.69,-153.5 2407.69,-150 2397.69,-146.5 2397.69,-153.5"/>
</g>
<!-- n10 -->
<g id="node10" class="node"><title>n10</title>
<polygon fill="none" stroke="black" points="1720.81,-638 1693.81,-620 1720.81,-602 1747.81,-620 1720.81,-638"/>
<text text-anchor="middle" x="1720.81" y="-616.3" font-family="Times,serif" font-size="14.00">n</text>
</g>
<!-- c40 -->
<g id="node36" class="node"><title>c40</title>
<polygon fill="none" stroke="black" points="1783.81,-609 1783.81,-655 1882.81,-655 1882.81,-609 1783.81,-609"/>
<text text-anchor="middle" x="1797.31" y="-639.8" font-family="Times,serif" font-size="14.00">A</text>
<polyline fill="none" stroke="black" points="1783.81,-632 1810.81,-632 "/>
<text text-anchor="middle" x="1797.31" y="-616.8" font-family="Times,serif" font-size="14.00">B</text>
<polyline fill="none" stroke="black" points="1810.81,-609 1810.81,-655 "/>
<text text-anchor="middle" x="1833.31" y="-635.8" font-family="Times,serif" font-size="14.00">$11</text>
<text text-anchor="middle" x="1833.31" y="-620.8" font-family="Times,serif" font-size="14.00">$add</text>
<polyline fill="none" stroke="black" points="1855.81,-609 1855.81,-655 "/>
<text text-anchor="middle" x="1869.31" y="-628.3" font-family="Times,serif" font-size="14.00">Y</text>
</g>
<!-- n10&#45;&gt;c40 -->
<g id="edge5" class="edge"><title>n10:e&#45;&gt;c40:p21:w</title>
<path fill="none" stroke="black" stroke-width="3" d="M1747.81,-620C1759.81,-620 1765.06,-620 1773.68,-620"/>
<polygon fill="black" stroke="black" stroke-width="3" points="1773.81,-623.5 1783.81,-620 1773.81,-616.5 1773.81,-623.5"/>
</g>
<!-- n11 -->
<g id="node11" class="node"><title>n11</title>
<polygon fill="none" stroke="black" points="1066.63,-625 1039.63,-607 1066.63,-589 1093.63,-607 1066.63,-625"/>
<text text-anchor="middle" x="1066.63" y="-603.3" font-family="Times,serif" font-size="14.00">n</text>
</g>
<!-- c42 -->
<g id="node38" class="node"><title>c42</title>
<polygon fill="none" stroke="black" points="1129.63,-633.5 1129.63,-702.5 1257.63,-702.5 1257.63,-633.5 1129.63,-633.5"/>
<text text-anchor="middle" x="1156.63" y="-687.3" font-family="Times,serif" font-size="14.00">ARST</text>
<polyline fill="none" stroke="black" points="1129.63,-679.5 1183.63,-679.5 "/>
<text text-anchor="middle" x="1156.63" y="-664.3" font-family="Times,serif" font-size="14.00">CLK</text>
<polyline fill="none" stroke="black" points="1129.63,-656.5 1183.63,-656.5 "/>
<text text-anchor="middle" x="1156.63" y="-641.3" font-family="Times,serif" font-size="14.00">D</text>
<polyline fill="none" stroke="black" points="1183.63,-633.5 1183.63,-702.5 "/>
<text text-anchor="middle" x="1207.13" y="-671.8" font-family="Times,serif" font-size="14.00">$14</text>
<text text-anchor="middle" x="1207.13" y="-656.8" font-family="Times,serif" font-size="14.00">$adff</text>
<polyline fill="none" stroke="black" points="1230.63,-633.5 1230.63,-702.5 "/>
<text text-anchor="middle" x="1244.13" y="-664.3" font-family="Times,serif" font-size="14.00">Q</text>
</g>
<!-- n11&#45;&gt;c42 -->
<g id="edge7" class="edge"><title>n11:e&#45;&gt;c42:p28:w</title>
<path fill="none" stroke="black" stroke-width="3" d="M1093.63,-607C1112.71,-607 1109.05,-632.571 1119.97,-641.76"/>
<polygon fill="black" stroke="black" stroke-width="3" points="1119.03,-645.138 1129.63,-645 1121.26,-638.502 1119.03,-645.138"/>
</g>
<!-- n12 -->
<g id="node12" class="node"><title>n12</title>
<polygon fill="none" stroke="black" points="2600.6,-59 2542.78,-41 2600.6,-23 2658.41,-41 2600.6,-59"/>
<text text-anchor="middle" x="2600.6" y="-37.3" font-family="Times,serif" font-size="14.00">app_arg</text>
</g>
<!-- c39 -->
<g id="node35" class="node"><title>c39</title>
<polygon fill="none" stroke="black" points="2694.5,-52.5 2694.5,-121.5 2822.5,-121.5 2822.5,-52.5 2694.5,-52.5"/>
<text text-anchor="middle" x="2721.5" y="-106.3" font-family="Times,serif" font-size="14.00">ARST</text>
<polyline fill="none" stroke="black" points="2694.5,-98.5 2748.5,-98.5 "/>
<text text-anchor="middle" x="2721.5" y="-83.3" font-family="Times,serif" font-size="14.00">CLK</text>
<polyline fill="none" stroke="black" points="2694.5,-75.5 2748.5,-75.5 "/>
<text text-anchor="middle" x="2721.5" y="-60.3" font-family="Times,serif" font-size="14.00">D</text>
<polyline fill="none" stroke="black" points="2748.5,-52.5 2748.5,-121.5 "/>
<text text-anchor="middle" x="2772" y="-90.8" font-family="Times,serif" font-size="14.00">$14</text>
<text text-anchor="middle" x="2772" y="-75.8" font-family="Times,serif" font-size="14.00">$adff</text>
<polyline fill="none" stroke="black" points="2795.5,-52.5 2795.5,-121.5 "/>
<text text-anchor="middle" x="2809" y="-83.3" font-family="Times,serif" font-size="14.00">Q</text>
</g>
<!-- n12&#45;&gt;c39 -->
<g id="edge9" class="edge"><title>n12:e&#45;&gt;c39:p28:w</title>
<path fill="none" stroke="black" stroke-width="3" d="M2658.5,-41C2673.34,-41 2675.38,-55.0381 2684.61,-61.1797"/>
<polygon fill="black" stroke="black" stroke-width="3" points="2683.93,-64.6234 2694.5,-64 2685.85,-57.8918 2683.93,-64.6234"/>
</g>
<!-- n13 -->
<g id="node13" class="node"><title>n13</title>
<polygon fill="none" stroke="black" points="2344.69,-298 2317.69,-280 2344.69,-262 2371.69,-280 2344.69,-298"/>
<text text-anchor="middle" x="2344.69" y="-276.3" font-family="Times,serif" font-size="14.00">y</text>
</g>
<!-- n13&#45;&gt;c38 -->
<g id="edge11" class="edge"><title>n13:e&#45;&gt;c38:p20:w</title>
<path fill="none" stroke="black" stroke-width="3" d="M2371.69,-280C2417.36,-280 2367.59,-190.677 2397.61,-176.023"/>
<polygon fill="black" stroke="black" stroke-width="3" points="2398.57,-179.399 2407.69,-174 2397.2,-172.536 2398.57,-179.399"/>
</g>
<!-- n14 -->
<g id="node14" class="node"><title>n14</title>
<polygon fill="none" stroke="black" points="2018.25,-473 1960.44,-455 2018.25,-437 2076.06,-455 2018.25,-473"/>
<text text-anchor="middle" x="2018.25" y="-451.3" font-family="Times,serif" font-size="14.00">app_arg</text>
</g>
<!-- c41 -->
<g id="node37" class="node"><title>c41</title>
<polygon fill="none" stroke="black" points="2153.69,-320.5 2153.69,-389.5 2281.69,-389.5 2281.69,-320.5 2153.69,-320.5"/>
<text text-anchor="middle" x="2180.69" y="-374.3" font-family="Times,serif" font-size="14.00">ARST</text>
<polyline fill="none" stroke="black" points="2153.69,-366.5 2207.69,-366.5 "/>
<text text-anchor="middle" x="2180.69" y="-351.3" font-family="Times,serif" font-size="14.00">CLK</text>
<polyline fill="none" stroke="black" points="2153.69,-343.5 2207.69,-343.5 "/>
<text text-anchor="middle" x="2180.69" y="-328.3" font-family="Times,serif" font-size="14.00">D</text>
<polyline fill="none" stroke="black" points="2207.69,-320.5 2207.69,-389.5 "/>
<text text-anchor="middle" x="2231.19" y="-358.8" font-family="Times,serif" font-size="14.00">$14</text>
<text text-anchor="middle" x="2231.19" y="-343.8" font-family="Times,serif" font-size="14.00">$adff</text>
<polyline fill="none" stroke="black" points="2254.69,-320.5 2254.69,-389.5 "/>
<text text-anchor="middle" x="2268.19" y="-351.3" font-family="Times,serif" font-size="14.00">Q</text>
</g>
<!-- n14&#45;&gt;c41 -->
<g id="edge13" class="edge"><title>n14:e&#45;&gt;c41:p28:w</title>
<path fill="none" stroke="black" stroke-width="3" d="M2077.25,-455C2137.84,-455 2095.05,-345.992 2143.53,-333.217"/>
<polygon fill="black" stroke="black" stroke-width="3" points="2144.18,-336.665 2153.69,-332 2143.35,-329.715 2144.18,-336.665"/>
</g>
<!-- n15 -->
<g id="node15" class="node"><title>n15</title>
<polygon fill="none" stroke="black" points="1593.81,-711 1566.81,-693 1593.81,-675 1620.81,-693 1593.81,-711"/>
<text text-anchor="middle" x="1593.81" y="-689.3" font-family="Times,serif" font-size="14.00">y</text>
</g>
<!-- n15&#45;&gt;c40 -->
<g id="edge15" class="edge"><title>n15:e&#45;&gt;c40:p20:w</title>
<path fill="none" stroke="black" stroke-width="3" d="M1621.81,-693C1693.5,-693 1707.36,-648.486 1773.64,-644.313"/>
<polygon fill="black" stroke="black" stroke-width="3" points="1773.92,-647.806 1783.81,-644 1773.71,-640.809 1773.92,-647.806"/>
</g>
<!-- n16 -->
<g id="node16" class="node"><title>n16</title>
<polygon fill="none" stroke="black" points="123.932,-403.544 123.932,-418.456 98.3131,-429 62.0832,-429 36.4648,-418.456 36.4648,-403.544 62.0832,-393 98.3131,-393 123.932,-403.544"/>
<text text-anchor="middle" x="80.1981" y="-407.3" font-family="Times,serif" font-size="14.00">input_0</text>
</g>
<!-- c30 -->
<g id="node26" class="node"><title>c30</title>
<polygon fill="none" stroke="black" points="196.396,-419.5 196.396,-488.5 324.396,-488.5 324.396,-419.5 196.396,-419.5"/>
<text text-anchor="middle" x="223.396" y="-473.3" font-family="Times,serif" font-size="14.00">ARST</text>
<polyline fill="none" stroke="black" points="196.396,-465.5 250.396,-465.5 "/>
<text text-anchor="middle" x="223.396" y="-450.3" font-family="Times,serif" font-size="14.00">CLK</text>
<polyline fill="none" stroke="black" points="196.396,-442.5 250.396,-442.5 "/>
<text text-anchor="middle" x="223.396" y="-427.3" font-family="Times,serif" font-size="14.00">D</text>
<polyline fill="none" stroke="black" points="250.396,-419.5 250.396,-488.5 "/>
<text text-anchor="middle" x="273.896" y="-457.8" font-family="Times,serif" font-size="14.00">$17</text>
<text text-anchor="middle" x="273.896" y="-442.8" font-family="Times,serif" font-size="14.00">$adff</text>
<polyline fill="none" stroke="black" points="297.396,-419.5 297.396,-488.5 "/>
<text text-anchor="middle" x="310.896" y="-450.3" font-family="Times,serif" font-size="14.00">Q</text>
</g>
<!-- n16&#45;&gt;c30 -->
<g id="edge16" class="edge"><title>n16:e&#45;&gt;c30:p28:w</title>
<path fill="none" stroke="black" stroke-width="3" d="M125.198,-411C154.343,-411 161.939,-426.725 186.202,-430.288"/>
<polygon fill="black" stroke="black" stroke-width="3" points="186.177,-433.795 196.396,-431 186.664,-426.812 186.177,-433.795"/>
</g>
<!-- n16&#45;&gt;c31 -->
<g id="edge17" class="edge"><title>n16:e&#45;&gt;c31:p21:w</title>
<path fill="none" stroke="black" stroke-width="3" d="M125.198,-411C159.711,-411 164.211,-392.461 196.396,-380 512.942,-257.445 599.184,-200 938.626,-200 938.626,-200 938.626,-200 1594.81,-200 1675.37,-200 1697.98,-201.839 1773.78,-201.99"/>
<polygon fill="black" stroke="black" stroke-width="3" points="1773.8,-205.49 1783.81,-202 1773.81,-198.49 1773.8,-205.49"/>
</g>
<!-- n16&#45;&gt;c32 -->
<g id="edge18" class="edge"><title>n16:e&#45;&gt;c32:p21:w</title>
<path fill="none" stroke="black" stroke-width="3" d="M125.198,-411C404.317,-411 459.416,-276 738.535,-276 738.535,-276 738.535,-276 940.626,-276 1026.91,-276 1050.98,-278.77 1132.4,-278.987"/>
<polygon fill="black" stroke="black" stroke-width="3" points="1132.62,-282.487 1142.63,-279 1132.63,-275.487 1132.62,-282.487"/>
</g>
<!-- n16&#45;&gt;c33 -->
<g id="edge19" class="edge"><title>n16:e&#45;&gt;c33:p21:w</title>
<path fill="none" stroke="black" stroke-width="3" d="M125.198,-411C175.162,-411 151.963,-475.151 196.396,-498 309.022,-555.915 355.881,-519.065 478.327,-517.082"/>
<polygon fill="black" stroke="black" stroke-width="3" points="478.472,-520.581 488.444,-517 478.416,-513.581 478.472,-520.581"/>
</g>
<!-- n17 -->
<g id="node17" class="node"><title>n17</title>
<polygon fill="none" stroke="black" points="2955.63,-79.5442 2955.63,-94.4558 2927.17,-105 2886.92,-105 2858.46,-94.4558 2858.46,-79.5442 2886.92,-69 2927.17,-69 2955.63,-79.5442"/>
<text text-anchor="middle" x="2907.05" y="-83.3" font-family="Times,serif" font-size="14.00">output_0</text>
</g>
<!-- n18 -->
<g id="node18" class="node"><title>n18</title>
<polygon fill="none" stroke="black" points="140.699,-212.544 140.699,-227.456 105.258,-238 55.1379,-238 19.6974,-227.456 19.6974,-212.544 55.1379,-202 105.258,-202 140.699,-212.544"/>
<text text-anchor="middle" x="80.1981" y="-216.3" font-family="Times,serif" font-size="14.00">system1000</text>
</g>
<!-- n18&#45;&gt;c30 -->
<g id="edge21" class="edge"><title>n18:e&#45;&gt;c30:p27:w</title>
<path fill="none" stroke="black" d="M142.198,-220C191.822,-220 149.887,-422.251 186.635,-450.692"/>
<polygon fill="black" stroke="black" points="185.802,-454.105 196.396,-454 188.049,-447.476 185.802,-454.105"/>
</g>
<!-- n18&#45;&gt;c34 -->
<g id="edge22" class="edge"><title>n18:e&#45;&gt;c34:p27:w</title>
<path fill="none" stroke="black" d="M142.198,-220C181.897,-220 160.814,-166.603 196.396,-149 247.387,-123.775 267.655,-144.911 324.396,-149 599.525,-168.829 662.784,-238 938.626,-238 938.626,-238 938.626,-238 1194.63,-238 1198.91,-238 1464.51,-293.367 1519.83,-304.181"/>
<polygon fill="black" stroke="black" points="1519.34,-307.649 1529.81,-306 1520.6,-300.763 1519.34,-307.649"/>
</g>
<!-- n18&#45;&gt;c35 -->
<g id="edge23" class="edge"><title>n18:e&#45;&gt;c35:p27:w</title>
<path fill="none" stroke="black" d="M142.198,-220C223.206,-220 243.807,-216.784 324.396,-225 501.932,-243.099 931.976,-363.534 1119.52,-367.879"/>
<polygon fill="black" stroke="black" points="1119.58,-371.38 1129.63,-368 1119.67,-364.381 1119.58,-371.38"/>
</g>
<!-- n18&#45;&gt;c36 -->
<g id="edge24" class="edge"><title>n18:e&#45;&gt;c36:p27:w</title>
<path fill="none" stroke="black" d="M142.198,-220C170.4,-220 170.62,-241.558 196.396,-253 250.636,-277.076 269.171,-269.279 324.396,-291 394.147,-318.434 406.191,-337.332 475.444,-366 530.894,-388.954 547.517,-387.234 603.444,-409 619.761,-415.35 622.44,-420.824 639.444,-425 738.198,-449.253 768.448,-440.631 865.396,-440.032"/>
<polygon fill="black" stroke="black" points="865.637,-443.531 875.626,-440 865.615,-436.531 865.637,-443.531"/>
</g>
<!-- n18&#45;&gt;c37 -->
<g id="edge25" class="edge"><title>n18:e&#45;&gt;c37:p27:w</title>
<path fill="none" stroke="black" d="M142.198,-220C181.897,-220 166.406,-264.988 196.396,-291 289.906,-372.105 335.086,-360.43 439.444,-427 452.703,-435.458 455.158,-446.946 465.595,-451.264"/>
<polygon fill="black" stroke="black" points="464.988,-454.711 475.444,-453 466.203,-447.818 464.988,-454.711"/>
</g>
<!-- n18&#45;&gt;c39 -->
<g id="edge26" class="edge"><title>n18:e&#45;&gt;c39:p27:w</title>
<path fill="none" stroke="black" d="M142.198,-220C187.754,-220 159.28,-159.414 196.396,-133 271.6,-79.4812 306.617,-87 398.92,-87 398.92,-87 398.92,-87 2458.19,-87 2559.73,-87 2587.65,-87 2684.3,-87"/>
<polygon fill="black" stroke="black" points="2684.5,-90.5001 2694.5,-87 2684.5,-83.5001 2684.5,-90.5001"/>
</g>
<!-- n18&#45;&gt;c41 -->
<g id="edge27" class="edge"><title>n18:e&#45;&gt;c41:p27:w</title>
<path fill="none" stroke="black" d="M142.198,-220C166.352,-220 172.307,-217.765 196.396,-216 526.264,-191.828 607.874,-162 938.626,-162 938.626,-162 938.626,-162 1721.81,-162 1793.86,-162 1817.31,-150.983 1882.81,-181 1902.54,-190.042 1901.42,-201.015 1918.81,-214 2013.61,-284.776 2030.99,-351.136 2143.6,-354.837"/>
<polygon fill="black" stroke="black" points="2143.64,-358.338 2153.69,-355 2143.75,-351.339 2143.64,-358.338"/>
</g>
<!-- n18&#45;&gt;c42 -->
<g id="edge28" class="edge"><title>n18:e&#45;&gt;c42:p27:w</title>
<path fill="none" stroke="black" d="M142.198,-220C183.345,-220 284.024,-245.053 324.396,-253 464.853,-280.649 499.366,-290.489 639.444,-320 659.668,-324.261 989.423,-380.985 1003.63,-396 1077.14,-473.721 972.369,-550.805 1039.63,-634 1064.3,-664.524 1083.48,-667.659 1119.54,-667.967"/>
<polygon fill="black" stroke="black" points="1119.61,-671.468 1129.63,-668 1119.64,-664.468 1119.61,-671.468"/>
</g>
<!-- n19 -->
<g id="node19" class="node"><title>n19</title>
<polygon fill="none" stroke="black" points="160.595,-642.544 160.595,-657.456 113.5,-668 46.8967,-668 -0.198637,-657.456 -0.198637,-642.544 46.8967,-632 113.5,-632 160.595,-642.544"/>
<text text-anchor="middle" x="80.1981" y="-646.3" font-family="Times,serif" font-size="14.00">system1000_rstn</text>
</g>
<!-- n19&#45;&gt;c30 -->
<g id="edge29" class="edge"><title>n19:e&#45;&gt;c30:p26:w</title>
<path fill="none" stroke="black" d="M160.396,-650C235.098,-650 129.208,-493.482 186.273,-478.197"/>
<polygon fill="black" stroke="black" points="186.877,-481.65 196.396,-477 186.054,-474.699 186.877,-481.65"/>
</g>
<!-- n19&#45;&gt;c34 -->
<g id="edge30" class="edge"><title>n19:e&#45;&gt;c34:p26:w</title>
<path fill="none" stroke="black" d="M160.396,-650C176.55,-650 180.281,-653.886 196.396,-655 304.489,-662.471 333.347,-657.985 439.444,-636 513.013,-620.755 532.123,-618.626 603.444,-595 619.898,-589.549 622.781,-584.775 639.444,-580 726.126,-555.16 750.834,-562.708 839.626,-547 912.671,-534.077 931.825,-534.634 1003.63,-516 1225.85,-458.327 1287.53,-453.795 1493.81,-353 1507.44,-346.338 1510,-335.247 1519.92,-330.864"/>
<polygon fill="black" stroke="black" points="1520.63,-334.292 1529.81,-329 1519.33,-327.413 1520.63,-334.292"/>
</g>
<!-- n19&#45;&gt;c35 -->
<g id="edge31" class="edge"><title>n19:e&#45;&gt;c35:p26:w</title>
<path fill="none" stroke="black" d="M160.396,-650C361.24,-650 410.677,-617.385 603.444,-561 619.921,-556.18 622.903,-551.597 639.444,-547 797.708,-503.013 852.559,-548.506 1003.63,-484 1064.39,-458.055 1060.61,-397.57 1119.6,-391.494"/>
<polygon fill="black" stroke="black" points="1119.81,-394.988 1129.63,-391 1119.47,-387.997 1119.81,-394.988"/>
</g>
<!-- n19&#45;&gt;c36 -->
<g id="edge32" class="edge"><title>n19:e&#45;&gt;c36:p26:w</title>
<path fill="none" stroke="black" d="M160.396,-650C361.24,-650 410.677,-617.385 603.444,-561 619.921,-556.18 623.355,-552.988 639.444,-547 740.595,-509.353 762.86,-465.815 865.443,-463.131"/>
<polygon fill="black" stroke="black" points="865.672,-466.628 875.626,-463 865.582,-459.629 865.672,-466.628"/>
</g>
<!-- n19&#45;&gt;c37 -->
<g id="edge33" class="edge"><title>n19:e&#45;&gt;c37:p26:w</title>
<path fill="none" stroke="black" d="M160.396,-650C195.776,-650 169.975,-602.53 196.396,-579 219.294,-558.608 411.434,-487.402 465.474,-477.216"/>
<polygon fill="black" stroke="black" points="465.941,-480.686 475.444,-476 465.093,-473.737 465.941,-480.686"/>
</g>
<!-- n19&#45;&gt;c39 -->
<g id="edge34" class="edge"><title>n19:e&#45;&gt;c39:p26:w</title>
<path fill="none" stroke="black" d="M160.396,-650C205.133,-650 162.112,-715.26 196.396,-744 266.644,-802.887 307.256,-783 398.92,-783 398.92,-783 398.92,-783 2458.19,-783 2771.65,-783 2386.33,-125.031 2684.09,-110.253"/>
<polygon fill="black" stroke="black" points="2684.59,-113.742 2694.5,-110 2684.42,-106.744 2684.59,-113.742"/>
</g>
<!-- n19&#45;&gt;c41 -->
<g id="edge35" class="edge"><title>n19:e&#45;&gt;c41:p26:w</title>
<path fill="none" stroke="black" d="M160.396,-650C191.877,-650 170.45,-693.173 196.396,-711 271.622,-762.684 307.65,-745 398.92,-745 398.92,-745 398.92,-745 1834.31,-745 2006.14,-745 2023.82,-625.921 2117.69,-482 2142.22,-444.392 2110.83,-388.193 2143.36,-379.225"/>
<polygon fill="black" stroke="black" points="2144.17,-382.653 2153.69,-378 2143.35,-375.702 2144.17,-382.653"/>
</g>
<!-- n19&#45;&gt;c42 -->
<g id="edge36" class="edge"><title>n19:e&#45;&gt;c42:p26:w</title>
<path fill="none" stroke="black" d="M160.396,-650C182.101,-650 176.667,-673.953 196.396,-683 278.787,-720.781 308.28,-707 398.92,-707 398.92,-707 398.92,-707 940.626,-707 1021.47,-707 1043.54,-692.286 1119.57,-691.079"/>
<polygon fill="black" stroke="black" points="1119.65,-694.578 1129.63,-691 1119.6,-687.578 1119.65,-694.578"/>
</g>
<!-- v0 -->
<g id="node20" class="node"><title>v0</title>
<ellipse fill="none" stroke="black" cx="2018.25" cy="-133" rx="99.3824" ry="18"/>
<text text-anchor="middle" x="2018.25" y="-129.3" font-family="Times,serif" font-size="14.00">16&#39;0000000000000111</text>
</g>
<!-- v0&#45;&gt;c23 -->
<g id="edge54" class="edge"><title>v0:e&#45;&gt;c23:p21:w</title>
<path fill="none" stroke="black" stroke-width="3" d="M2117.69,-133C2135.29,-133 2141.88,-136.365 2155.52,-137.574"/>
<polygon fill="black" stroke="black" stroke-width="3" points="2155.55,-141.078 2165.69,-138 2155.85,-134.084 2155.55,-141.078"/>
</g>
<!-- c23&#45;&gt;n9 -->
<g id="edge52" class="edge"><title>c23:p22:e&#45;&gt;n9:w</title>
<path fill="none" stroke="black" stroke-width="3" d="M2269.69,-150C2287.19,-150 2293.92,-150 2307.55,-150"/>
<polygon fill="black" stroke="black" stroke-width="3" points="2307.69,-153.5 2317.69,-150 2307.69,-146.5 2307.69,-153.5"/>
</g>
<!-- v1 -->
<g id="node22" class="node"><title>v1</title>
<ellipse fill="none" stroke="black" cx="1393.72" cy="-601" rx="100.182" ry="18"/>
<text text-anchor="middle" x="1393.72" y="-597.3" font-family="Times,serif" font-size="14.00">16&#39;0000000000000101</text>
</g>
<!-- v1&#45;&gt;c24 -->
<g id="edge55" class="edge"><title>v1:e&#45;&gt;c24:p21:w</title>
<path fill="none" stroke="black" stroke-width="3" d="M1493.81,-601C1511.49,-601 1517.96,-605.71 1531.61,-607.403"/>
<polygon fill="black" stroke="black" stroke-width="3" points="1531.62,-610.91 1541.81,-608 1532.03,-603.922 1531.62,-610.91"/>
</g>
<!-- c24&#45;&gt;n10 -->
<g id="edge4" class="edge"><title>c24:p22:e&#45;&gt;n10:w</title>
<path fill="none" stroke="black" stroke-width="3" d="M1645.81,-620C1663.31,-620 1670.04,-620 1683.67,-620"/>
<polygon fill="black" stroke="black" stroke-width="3" points="1683.81,-623.5 1693.81,-620 1683.81,-616.5 1683.81,-623.5"/>
</g>
<!-- v2 -->
<g id="node24" class="node"><title>v2</title>
<ellipse fill="none" stroke="black" cx="739.535" cy="-607" rx="100.182" ry="18"/>
<text text-anchor="middle" x="739.535" y="-603.3" font-family="Times,serif" font-size="14.00">16&#39;0000000000000011</text>
</g>
<!-- v2&#45;&gt;c25 -->
<g id="edge56" class="edge"><title>v2:e&#45;&gt;c25:p21:w</title>
<path fill="none" stroke="black" stroke-width="3" d="M839.626,-607C857.126,-607 863.859,-607 877.49,-607"/>
<polygon fill="black" stroke="black" stroke-width="3" points="877.626,-610.5 887.626,-607 877.626,-603.5 877.626,-610.5"/>
</g>
<!-- c25&#45;&gt;n11 -->
<g id="edge6" class="edge"><title>c25:p22:e&#45;&gt;n11:w</title>
<path fill="none" stroke="black" stroke-width="3" d="M991.626,-619C1009.66,-619 1015.61,-610.925 1029.3,-608.023"/>
<polygon fill="black" stroke="black" stroke-width="3" points="1030.02,-611.469 1039.63,-607 1029.33,-604.504 1030.02,-611.469"/>
</g>
<!-- c30&#45;&gt;n1 -->
<g id="edge1" class="edge"><title>c30:p29:e&#45;&gt;n1:w</title>
<path fill="none" stroke="black" stroke-width="3" d="M324.396,-454C336.396,-454 341.646,-454 350.271,-454"/>
<polygon fill="black" stroke="black" stroke-width="3" points="350.396,-457.5 360.396,-454 350.396,-450.5 350.396,-457.5"/>
</g>
<!-- c31&#45;&gt;n3 -->
<g id="edge39" class="edge"><title>c31:p22:e&#45;&gt;n3:w</title>
<path fill="none" stroke="black" stroke-width="3" d="M1882.81,-214C1921.15,-214 1929.91,-191.441 1963.17,-187.564"/>
<polygon fill="black" stroke="black" stroke-width="3" points="1963.46,-191.053 1973.25,-187 1963.07,-184.064 1963.46,-191.053"/>
</g>
<!-- c32&#45;&gt;n5 -->
<g id="edge44" class="edge"><title>c32:p22:e&#45;&gt;n5:w</title>
<path fill="none" stroke="black" stroke-width="3" d="M1244.63,-291C1320.3,-291 1249.87,-566.255 1293.63,-628 1307.3,-647.293 1318.18,-653.429 1338.61,-654.719"/>
<polygon fill="black" stroke="black" stroke-width="3" points="1338.62,-658.22 1348.72,-655 1338.82,-651.223 1338.62,-658.22"/>
</g>
<!-- c33&#45;&gt;n6 -->
<g id="edge46" class="edge"><title>c33:p22:e&#45;&gt;n6:w</title>
<path fill="none" stroke="black" stroke-width="3" d="M590.444,-529C641.942,-529 603.378,-597.24 639.444,-634 655.929,-650.803 664.687,-658.716 684.317,-660.566"/>
<polygon fill="black" stroke="black" stroke-width="3" points="684.395,-664.073 694.535,-661 684.692,-657.079 684.395,-664.073"/>
</g>
<!-- c34&#45;&gt;n2 -->
<g id="edge37" class="edge"><title>c34:p29:e&#45;&gt;n2:w</title>
<path fill="none" stroke="black" stroke-width="3" d="M1657.81,-306C1674.57,-306 1674.18,-286.574 1684.24,-278.986"/>
<polygon fill="black" stroke="black" stroke-width="3" points="1685.31,-282.321 1693.81,-276 1683.22,-275.638 1685.31,-282.321"/>
</g>
<!-- c35&#45;&gt;n7 -->
<g id="edge48" class="edge"><title>c35:p29:e&#45;&gt;n7:w</title>
<path fill="none" stroke="black" stroke-width="3" d="M1257.63,-368C1292.99,-368 1295.53,-333.506 1324.73,-327.038"/>
<polygon fill="black" stroke="black" stroke-width="3" points="1325.13,-330.515 1334.72,-326 1324.41,-323.553 1325.13,-330.515"/>
</g>
<!-- c36&#45;&gt;n4 -->
<g id="edge41" class="edge"><title>c36:p29:e&#45;&gt;n4:w</title>
<path fill="none" stroke="black" stroke-width="3" d="M1003.63,-440C1054.39,-440 995.022,-338.866 1029.44,-323.853"/>
<polygon fill="black" stroke="black" stroke-width="3" points="1030.41,-327.233 1039.63,-322 1029.16,-320.346 1030.41,-327.233"/>
</g>
<!-- c37&#45;&gt;n8 -->
<g id="edge50" class="edge"><title>c37:p29:e&#45;&gt;n8:w</title>
<path fill="none" stroke="black" stroke-width="3" d="M603.444,-453C641.751,-453 639.323,-407.439 670.31,-399.252"/>
<polygon fill="black" stroke="black" stroke-width="3" points="671.035,-402.69 680.535,-398 670.184,-395.742 671.035,-402.69"/>
</g>
<!-- c38&#45;&gt;n12 -->
<g id="edge8" class="edge"><title>c38:p22:e&#45;&gt;n12:w</title>
<path fill="none" stroke="black" stroke-width="3" d="M2506.69,-162C2558.85,-162 2496.65,-57.4174 2532.73,-42.7105"/>
<polygon fill="black" stroke="black" stroke-width="3" points="2533.43,-46.1415 2542.69,-41 2532.24,-39.2424 2533.43,-46.1415"/>
</g>
<!-- c39&#45;&gt;n17 -->
<g id="edge20" class="edge"><title>c39:p29:e&#45;&gt;n17:w</title>
<path fill="none" stroke="black" stroke-width="3" d="M2822.5,-87C2834.5,-87 2839.75,-87 2848.38,-87"/>
<polygon fill="black" stroke="black" stroke-width="3" points="2848.5,-90.5001 2858.5,-87 2848.5,-83.5001 2848.5,-90.5001"/>
</g>
<!-- c40&#45;&gt;n14 -->
<g id="edge12" class="edge"><title>c40:p22:e&#45;&gt;n14:w</title>
<path fill="none" stroke="black" stroke-width="3" d="M1882.81,-632C1964.82,-632 1881.39,-469.884 1949.18,-455.952"/>
<polygon fill="black" stroke="black" stroke-width="3" points="1949.62,-459.426 1959.25,-455 1948.96,-452.457 1949.62,-459.426"/>
</g>
<!-- c41&#45;&gt;n13 -->
<g id="edge10" class="edge"><title>c41:p29:e&#45;&gt;n13:w</title>
<path fill="none" stroke="black" stroke-width="3" d="M2281.69,-355C2314.48,-355 2288.35,-296.03 2307.79,-282.669"/>
<polygon fill="black" stroke="black" stroke-width="3" points="2308.95,-285.983 2317.69,-280 2307.12,-279.224 2308.95,-285.983"/>
</g>
<!-- c42&#45;&gt;n15 -->
<g id="edge14" class="edge"><title>c42:p29:e&#45;&gt;n15:w</title>
<path fill="none" stroke="black" stroke-width="3" d="M1257.63,-668C1274.79,-668 1276.82,-678.495 1293.63,-682 1408.79,-706.022 1442.82,-693.746 1555.73,-693.032"/>
<polygon fill="black" stroke="black" stroke-width="3" points="1555.82,-696.532 1565.81,-693 1555.8,-689.532 1555.82,-696.532"/>
</g>
</g>
</svg>
