<?xml version="1.0" encoding="UTF-8" standalone="no"?>
<!DOCTYPE svg PUBLIC "-//W3C//DTD SVG 1.1//EN"
 "http://www.w3.org/Graphics/SVG/1.1/DTD/svg11.dtd">
<!-- Generated by graphviz version 2.38.0 (20140413.2041)
 -->
<!-- Title: Main_topEntity Pages: 1 -->
<svg width="2830pt" height="1042pt"
 viewBox="0.00 0.00 2830.47 1042.02" xmlns="http://www.w3.org/2000/svg" xmlns:xlink="http://www.w3.org/1999/xlink">
<g id="graph0" class="graph" transform="scale(1 1) rotate(0) translate(4 1038.02)">
<title>Main_topEntity</title>
<polygon fill="white" stroke="none" points="-4,4 -4,-1038.02 2826.47,-1038.02 2826.47,4 -4,4"/>
<text text-anchor="middle" x="1411.24" y="-7.8" font-family="Times,serif" font-size="14.00">Main_topEntity</text>
<!-- n1 -->
<g id="node1" class="node"><title>n1</title>
<polygon fill="none" stroke="black" points="586.659,-151 543.258,-133 586.659,-115 630.061,-133 586.659,-151"/>
<text text-anchor="middle" x="586.659" y="-129.3" font-family="Times,serif" font-size="14.00">result</text>
</g>
<!-- c26 -->
<g id="node22" class="node"><title>c26</title>
<polygon fill="none" stroke="black" points="665.86,-143.5 665.86,-212.5 791.86,-212.5 791.86,-143.5 665.86,-143.5"/>
<text text-anchor="middle" x="692.36" y="-197.3" font-family="Times,serif" font-size="14.00">ARST</text>
<polyline fill="none" stroke="black" points="665.86,-189.5 718.86,-189.5 "/>
<text text-anchor="middle" x="692.36" y="-174.3" font-family="Times,serif" font-size="14.00">CLK</text>
<polyline fill="none" stroke="black" points="665.86,-166.5 718.86,-166.5 "/>
<text text-anchor="middle" x="692.36" y="-151.3" font-family="Times,serif" font-size="14.00">D</text>
<polyline fill="none" stroke="black" points="718.86,-143.5 718.86,-212.5 "/>
<text text-anchor="middle" x="741.86" y="-181.8" font-family="Times,serif" font-size="14.00">$17</text>
<text text-anchor="middle" x="741.86" y="-166.8" font-family="Times,serif" font-size="14.00">$adff</text>
<polyline fill="none" stroke="black" points="764.86,-143.5 764.86,-212.5 "/>
<text text-anchor="middle" x="778.36" y="-174.3" font-family="Times,serif" font-size="14.00">Q</text>
</g>
<!-- n1&#45;&gt;c26 -->
<g id="edge2" class="edge"><title>n1:e&#45;&gt;c26:p21:w</title>
<path fill="none" stroke="black" stroke-width="3" d="M629.86,-133C644.509,-133 646.797,-146.428 656.038,-152.302"/>
<polygon fill="black" stroke="black" stroke-width="3" points="655.29,-155.726 665.86,-155 657.144,-148.976 655.29,-155.726"/>
</g>
<!-- n2 -->
<g id="node2" class="node"><title>n2</title>
<polygon fill="none" stroke="black" points="586.659,-422 543.258,-404 586.659,-386 630.061,-404 586.659,-422"/>
<text text-anchor="middle" x="586.659" y="-400.3" font-family="Times,serif" font-size="14.00">result</text>
</g>
<!-- c25 -->
<g id="node21" class="node"><title>c25</title>
<polygon fill="none" stroke="black" points="665.86,-350.5 665.86,-419.5 791.86,-419.5 791.86,-350.5 665.86,-350.5"/>
<text text-anchor="middle" x="692.36" y="-404.3" font-family="Times,serif" font-size="14.00">ARST</text>
<polyline fill="none" stroke="black" points="665.86,-396.5 718.86,-396.5 "/>
<text text-anchor="middle" x="692.36" y="-381.3" font-family="Times,serif" font-size="14.00">CLK</text>
<polyline fill="none" stroke="black" points="665.86,-373.5 718.86,-373.5 "/>
<text text-anchor="middle" x="692.36" y="-358.3" font-family="Times,serif" font-size="14.00">D</text>
<polyline fill="none" stroke="black" points="718.86,-350.5 718.86,-419.5 "/>
<text text-anchor="middle" x="741.86" y="-388.8" font-family="Times,serif" font-size="14.00">$16</text>
<text text-anchor="middle" x="741.86" y="-373.8" font-family="Times,serif" font-size="14.00">$adff</text>
<polyline fill="none" stroke="black" points="764.86,-350.5 764.86,-419.5 "/>
<text text-anchor="middle" x="778.36" y="-381.3" font-family="Times,serif" font-size="14.00">Q</text>
</g>
<!-- n2&#45;&gt;c25 -->
<g id="edge35" class="edge"><title>n2:e&#45;&gt;c25:p21:w</title>
<path fill="none" stroke="black" stroke-width="3" d="M629.86,-404C650.22,-404 644.687,-375.197 656.146,-365.296"/>
<polygon fill="black" stroke="black" stroke-width="3" points="657.514,-368.527 665.86,-362 655.266,-361.898 657.514,-368.527"/>
</g>
<!-- n3 -->
<g id="node3" class="node"><title>n3</title>
<polygon fill="none" stroke="black" points="586.659,-628 543.258,-610 586.659,-592 630.061,-610 586.659,-628"/>
<text text-anchor="middle" x="586.659" y="-606.3" font-family="Times,serif" font-size="14.00">result</text>
</g>
<!-- c24 -->
<g id="node20" class="node"><title>c24</title>
<polygon fill="none" stroke="black" points="665.86,-552.5 665.86,-621.5 791.86,-621.5 791.86,-552.5 665.86,-552.5"/>
<text text-anchor="middle" x="692.36" y="-606.3" font-family="Times,serif" font-size="14.00">ARST</text>
<polyline fill="none" stroke="black" points="665.86,-598.5 718.86,-598.5 "/>
<text text-anchor="middle" x="692.36" y="-583.3" font-family="Times,serif" font-size="14.00">CLK</text>
<polyline fill="none" stroke="black" points="665.86,-575.5 718.86,-575.5 "/>
<text text-anchor="middle" x="692.36" y="-560.3" font-family="Times,serif" font-size="14.00">D</text>
<polyline fill="none" stroke="black" points="718.86,-552.5 718.86,-621.5 "/>
<text text-anchor="middle" x="741.86" y="-590.8" font-family="Times,serif" font-size="14.00">$15</text>
<text text-anchor="middle" x="741.86" y="-575.8" font-family="Times,serif" font-size="14.00">$adff</text>
<polyline fill="none" stroke="black" points="764.86,-552.5 764.86,-621.5 "/>
<text text-anchor="middle" x="778.36" y="-583.3" font-family="Times,serif" font-size="14.00">Q</text>
</g>
<!-- n3&#45;&gt;c24 -->
<g id="edge37" class="edge"><title>n3:e&#45;&gt;c24:p21:w</title>
<path fill="none" stroke="black" stroke-width="3" d="M629.86,-610C651.562,-610 643.996,-577.856 656.094,-567.308"/>
<polygon fill="black" stroke="black" stroke-width="3" points="657.512,-570.524 665.86,-564 655.266,-563.894 657.512,-570.524"/>
</g>
<!-- n4 -->
<g id="node4" class="node"><title>n4</title>
<polygon fill="none" stroke="black" points="586.659,-834 543.258,-816 586.659,-798 630.061,-816 586.659,-834"/>
<text text-anchor="middle" x="586.659" y="-812.3" font-family="Times,serif" font-size="14.00">result</text>
</g>
<!-- c23 -->
<g id="node19" class="node"><title>c23</title>
<polygon fill="none" stroke="black" points="665.86,-752.5 665.86,-821.5 791.86,-821.5 791.86,-752.5 665.86,-752.5"/>
<text text-anchor="middle" x="692.36" y="-806.3" font-family="Times,serif" font-size="14.00">ARST</text>
<polyline fill="none" stroke="black" points="665.86,-798.5 718.86,-798.5 "/>
<text text-anchor="middle" x="692.36" y="-783.3" font-family="Times,serif" font-size="14.00">CLK</text>
<polyline fill="none" stroke="black" points="665.86,-775.5 718.86,-775.5 "/>
<text text-anchor="middle" x="692.36" y="-760.3" font-family="Times,serif" font-size="14.00">D</text>
<polyline fill="none" stroke="black" points="718.86,-752.5 718.86,-821.5 "/>
<text text-anchor="middle" x="741.86" y="-790.8" font-family="Times,serif" font-size="14.00">$14</text>
<text text-anchor="middle" x="741.86" y="-775.8" font-family="Times,serif" font-size="14.00">$adff</text>
<polyline fill="none" stroke="black" points="764.86,-752.5 764.86,-821.5 "/>
<text text-anchor="middle" x="778.36" y="-783.3" font-family="Times,serif" font-size="14.00">Q</text>
</g>
<!-- n4&#45;&gt;c23 -->
<g id="edge39" class="edge"><title>n4:e&#45;&gt;c23:p21:w</title>
<path fill="none" stroke="black" stroke-width="3" d="M629.86,-816C653.797,-816 642.688,-778.292 656.221,-767.097"/>
<polygon fill="black" stroke="black" stroke-width="3" points="657.41,-770.391 665.86,-764 655.269,-763.727 657.41,-770.391"/>
</g>
<!-- n5 -->
<g id="node5" class="node"><title>n5</title>
<polygon fill="none" stroke="black" points="1004.07,-186 965.36,-168 1004.07,-150 1042.78,-168 1004.07,-186"/>
<text text-anchor="middle" x="1004.07" y="-164.3" font-family="Times,serif" font-size="14.00">dout</text>
</g>
<!-- c34 -->
<g id="node31" class="node"><title>c34</title>
<polygon fill="none" stroke="black" points="2284.23,-153 2284.23,-199 2380.23,-199 2380.23,-153 2284.23,-153"/>
<text text-anchor="middle" x="2297.23" y="-183.8" font-family="Times,serif" font-size="14.00">A</text>
<polyline fill="none" stroke="black" points="2284.23,-176 2310.23,-176 "/>
<text text-anchor="middle" x="2297.23" y="-160.8" font-family="Times,serif" font-size="14.00">B</text>
<polyline fill="none" stroke="black" points="2310.23,-153 2310.23,-199 "/>
<text text-anchor="middle" x="2332.23" y="-179.8" font-family="Times,serif" font-size="14.00">$10</text>
<text text-anchor="middle" x="2332.23" y="-164.8" font-family="Times,serif" font-size="14.00">$add</text>
<polyline fill="none" stroke="black" points="2354.23,-153 2354.23,-199 "/>
<text text-anchor="middle" x="2367.23" y="-172.3" font-family="Times,serif" font-size="14.00">Y</text>
</g>
<!-- n5&#45;&gt;c34 -->
<g id="edge41" class="edge"><title>n5:e&#45;&gt;c34:p28:w</title>
<path fill="none" stroke="black" stroke-width="3" d="M1044.07,-168C1141.51,-168 1165.84,-164 1263.28,-164 1263.28,-164 1263.28,-164 2096.23,-164 2176.19,-164 2198.76,-164 2273.8,-164"/>
<polygon fill="black" stroke="black" stroke-width="3" points="2274.23,-167.5 2284.23,-164 2274.23,-160.5 2274.23,-167.5"/>
</g>
<!-- n6 -->
<g id="node6" class="node"><title>n6</title>
<polygon fill="none" stroke="black" points="1141.67,-392 1102.96,-374 1141.67,-356 1180.38,-374 1141.67,-392"/>
<text text-anchor="middle" x="1141.67" y="-370.3" font-family="Times,serif" font-size="14.00">dout</text>
</g>
<!-- c36 -->
<g id="node33" class="node"><title>c36</title>
<polygon fill="none" stroke="black" points="1750.25,-359 1750.25,-405 1846.25,-405 1846.25,-359 1750.25,-359"/>
<text text-anchor="middle" x="1763.25" y="-389.8" font-family="Times,serif" font-size="14.00">A</text>
<polyline fill="none" stroke="black" points="1750.25,-382 1776.25,-382 "/>
<text text-anchor="middle" x="1763.25" y="-366.8" font-family="Times,serif" font-size="14.00">B</text>
<polyline fill="none" stroke="black" points="1776.25,-359 1776.25,-405 "/>
<text text-anchor="middle" x="1798.25" y="-385.8" font-family="Times,serif" font-size="14.00">$10</text>
<text text-anchor="middle" x="1798.25" y="-370.8" font-family="Times,serif" font-size="14.00">$add</text>
<polyline fill="none" stroke="black" points="1820.25,-359 1820.25,-405 "/>
<text text-anchor="middle" x="1833.25" y="-378.3" font-family="Times,serif" font-size="14.00">Y</text>
</g>
<!-- n6&#45;&gt;c36 -->
<g id="edge43" class="edge"><title>n6:e&#45;&gt;c36:p28:w</title>
<path fill="none" stroke="black" stroke-width="3" d="M1180.28,-374C1279.84,-374 1304.7,-370 1404.27,-370 1404.27,-370 1404.27,-370 1562.25,-370 1642.22,-370 1664.79,-370 1739.82,-370"/>
<polygon fill="black" stroke="black" stroke-width="3" points="1740.25,-373.5 1750.25,-370 1740.25,-366.5 1740.25,-373.5"/>
</g>
<!-- n7 -->
<g id="node7" class="node"><title>n7</title>
<polygon fill="none" stroke="black" points="866.464,-586 827.755,-568 866.464,-550 905.174,-568 866.464,-586"/>
<text text-anchor="middle" x="866.464" y="-564.3" font-family="Times,serif" font-size="14.00">dout</text>
</g>
<!-- c38 -->
<g id="node35" class="node"><title>c38</title>
<polygon fill="none" stroke="black" points="1216.28,-557 1216.28,-603 1312.28,-603 1312.28,-557 1216.28,-557"/>
<text text-anchor="middle" x="1229.28" y="-587.8" font-family="Times,serif" font-size="14.00">A</text>
<polyline fill="none" stroke="black" points="1216.28,-580 1242.28,-580 "/>
<text text-anchor="middle" x="1229.28" y="-564.8" font-family="Times,serif" font-size="14.00">B</text>
<polyline fill="none" stroke="black" points="1242.28,-557 1242.28,-603 "/>
<text text-anchor="middle" x="1264.28" y="-583.8" font-family="Times,serif" font-size="14.00">$10</text>
<text text-anchor="middle" x="1264.28" y="-568.8" font-family="Times,serif" font-size="14.00">$add</text>
<polyline fill="none" stroke="black" points="1286.28,-557 1286.28,-603 "/>
<text text-anchor="middle" x="1299.28" y="-576.3" font-family="Times,serif" font-size="14.00">Y</text>
</g>
<!-- n7&#45;&gt;c38 -->
<g id="edge45" class="edge"><title>n7:e&#45;&gt;c38:p28:w</title>
<path fill="none" stroke="black" stroke-width="3" d="M905.069,-568C1039.87,-568 1076.14,-568 1205.94,-568"/>
<polygon fill="black" stroke="black" stroke-width="3" points="1206.28,-571.5 1216.28,-568 1206.28,-564.5 1206.28,-571.5"/>
</g>
<!-- n8 -->
<g id="node8" class="node"><title>n8</title>
<polygon fill="none" stroke="black" points="866.464,-640 827.755,-622 866.464,-604 905.174,-622 866.464,-640"/>
<text text-anchor="middle" x="866.464" y="-618.3" font-family="Times,serif" font-size="14.00">dout</text>
</g>
<!-- c40 -->
<g id="node37" class="node"><title>c40</title>
<polygon fill="none" stroke="black" points="941.069,-621.5 941.069,-690.5 1067.07,-690.5 1067.07,-621.5 941.069,-621.5"/>
<text text-anchor="middle" x="967.569" y="-675.3" font-family="Times,serif" font-size="14.00">ARST</text>
<polyline fill="none" stroke="black" points="941.069,-667.5 994.069,-667.5 "/>
<text text-anchor="middle" x="967.569" y="-652.3" font-family="Times,serif" font-size="14.00">CLK</text>
<polyline fill="none" stroke="black" points="941.069,-644.5 994.069,-644.5 "/>
<text text-anchor="middle" x="967.569" y="-629.3" font-family="Times,serif" font-size="14.00">D</text>
<polyline fill="none" stroke="black" points="994.069,-621.5 994.069,-690.5 "/>
<text text-anchor="middle" x="1017.07" y="-659.8" font-family="Times,serif" font-size="14.00">$13</text>
<text text-anchor="middle" x="1017.07" y="-644.8" font-family="Times,serif" font-size="14.00">$adff</text>
<polyline fill="none" stroke="black" points="1040.07,-621.5 1040.07,-690.5 "/>
<text text-anchor="middle" x="1053.57" y="-652.3" font-family="Times,serif" font-size="14.00">Q</text>
</g>
<!-- n8&#45;&gt;c40 -->
<g id="edge47" class="edge"><title>n8:e&#45;&gt;c40:p21:w</title>
<path fill="none" stroke="black" stroke-width="3" d="M905.069,-622C917.747,-622 922.276,-628.317 931.007,-631.377"/>
<polygon fill="black" stroke="black" stroke-width="3" points="930.639,-634.863 941.069,-633 931.754,-627.952 930.639,-634.863"/>
</g>
<!-- n9 -->
<g id="node9" class="node"><title>n9</title>
<polygon fill="none" stroke="black" points="2473.22,-59 2416.24,-41 2473.22,-23 2530.19,-41 2473.22,-59"/>
<text text-anchor="middle" x="2473.22" y="-37.3" font-family="Times,serif" font-size="14.00">app_arg</text>
</g>
<!-- c35 -->
<g id="node32" class="node"><title>c35</title>
<polygon fill="none" stroke="black" points="2566.2,-52.5 2566.2,-121.5 2692.2,-121.5 2692.2,-52.5 2566.2,-52.5"/>
<text text-anchor="middle" x="2592.7" y="-106.3" font-family="Times,serif" font-size="14.00">ARST</text>
<polyline fill="none" stroke="black" points="2566.2,-98.5 2619.2,-98.5 "/>
<text text-anchor="middle" x="2592.7" y="-83.3" font-family="Times,serif" font-size="14.00">CLK</text>
<polyline fill="none" stroke="black" points="2566.2,-75.5 2619.2,-75.5 "/>
<text text-anchor="middle" x="2592.7" y="-60.3" font-family="Times,serif" font-size="14.00">D</text>
<polyline fill="none" stroke="black" points="2619.2,-52.5 2619.2,-121.5 "/>
<text text-anchor="middle" x="2642.2" y="-90.8" font-family="Times,serif" font-size="14.00">$13</text>
<text text-anchor="middle" x="2642.2" y="-75.8" font-family="Times,serif" font-size="14.00">$adff</text>
<polyline fill="none" stroke="black" points="2665.2,-52.5 2665.2,-121.5 "/>
<text text-anchor="middle" x="2678.7" y="-83.3" font-family="Times,serif" font-size="14.00">Q</text>
</g>
<!-- n9&#45;&gt;c35 -->
<g id="edge49" class="edge"><title>n9:e&#45;&gt;c35:p21:w</title>
<path fill="none" stroke="black" stroke-width="3" d="M2530.2,-41C2545.04,-41 2547.08,-55.0381 2556.31,-61.1797"/>
<polygon fill="black" stroke="black" stroke-width="3" points="2555.63,-64.6234 2566.2,-64 2557.55,-57.8918 2555.63,-64.6234"/>
</g>
<!-- n10 -->
<g id="node10" class="node"><title>n10</title>
<polygon fill="none" stroke="black" points="2221.23,-246 2194.23,-228 2221.23,-210 2248.23,-228 2221.23,-246"/>
<text text-anchor="middle" x="2221.23" y="-224.3" font-family="Times,serif" font-size="14.00">y</text>
</g>
<!-- n10&#45;&gt;c34 -->
<g id="edge4" class="edge"><title>n10:e&#45;&gt;c34:p27:w</title>
<path fill="none" stroke="black" stroke-width="3" d="M2248.23,-228C2268.04,-228 2263.32,-200.568 2274.7,-191.139"/>
<polygon fill="black" stroke="black" stroke-width="3" points="2275.83,-194.453 2284.23,-188 2273.64,-187.805 2275.83,-194.453"/>
</g>
<!-- n11 -->
<g id="node11" class="node"><title>n11</title>
<polygon fill="none" stroke="black" points="1939.24,-228 1882.27,-210 1939.24,-192 1996.22,-210 1939.24,-228"/>
<text text-anchor="middle" x="1939.24" y="-206.3" font-family="Times,serif" font-size="14.00">app_arg</text>
</g>
<!-- c37 -->
<g id="node34" class="node"><title>c37</title>
<polygon fill="none" stroke="black" points="2032.23,-210.5 2032.23,-279.5 2158.23,-279.5 2158.23,-210.5 2032.23,-210.5"/>
<text text-anchor="middle" x="2058.73" y="-264.3" font-family="Times,serif" font-size="14.00">ARST</text>
<polyline fill="none" stroke="black" points="2032.23,-256.5 2085.23,-256.5 "/>
<text text-anchor="middle" x="2058.73" y="-241.3" font-family="Times,serif" font-size="14.00">CLK</text>
<polyline fill="none" stroke="black" points="2032.23,-233.5 2085.23,-233.5 "/>
<text text-anchor="middle" x="2058.73" y="-218.3" font-family="Times,serif" font-size="14.00">D</text>
<polyline fill="none" stroke="black" points="2085.23,-210.5 2085.23,-279.5 "/>
<text text-anchor="middle" x="2108.23" y="-248.8" font-family="Times,serif" font-size="14.00">$13</text>
<text text-anchor="middle" x="2108.23" y="-233.8" font-family="Times,serif" font-size="14.00">$adff</text>
<polyline fill="none" stroke="black" points="2131.23,-210.5 2131.23,-279.5 "/>
<text text-anchor="middle" x="2144.73" y="-241.3" font-family="Times,serif" font-size="14.00">Q</text>
</g>
<!-- n11&#45;&gt;c37 -->
<g id="edge6" class="edge"><title>n11:e&#45;&gt;c37:p21:w</title>
<path fill="none" stroke="black" stroke-width="3" d="M1996.23,-210C2009.01,-210 2013.41,-216.891 2022.13,-220.229"/>
<polygon fill="black" stroke="black" stroke-width="3" points="2021.78,-223.721 2032.23,-222 2022.98,-216.826 2021.78,-223.721"/>
</g>
<!-- n12 -->
<g id="node12" class="node"><title>n12</title>
<polygon fill="none" stroke="black" points="1687.25,-452 1660.25,-434 1687.25,-416 1714.25,-434 1687.25,-452"/>
<text text-anchor="middle" x="1687.25" y="-430.3" font-family="Times,serif" font-size="14.00">y</text>
</g>
<!-- n12&#45;&gt;c36 -->
<g id="edge8" class="edge"><title>n12:e&#45;&gt;c36:p27:w</title>
<path fill="none" stroke="black" stroke-width="3" d="M1714.25,-434C1734.06,-434 1729.35,-406.568 1740.73,-397.139"/>
<polygon fill="black" stroke="black" stroke-width="3" points="1741.85,-400.453 1750.25,-394 1739.66,-393.805 1741.85,-400.453"/>
</g>
<!-- n13 -->
<g id="node13" class="node"><title>n13</title>
<polygon fill="none" stroke="black" points="1405.27,-434 1348.29,-416 1405.27,-398 1462.24,-416 1405.27,-434"/>
<text text-anchor="middle" x="1405.27" y="-412.3" font-family="Times,serif" font-size="14.00">app_arg</text>
</g>
<!-- c39 -->
<g id="node36" class="node"><title>c39</title>
<polygon fill="none" stroke="black" points="1498.25,-416.5 1498.25,-485.5 1624.25,-485.5 1624.25,-416.5 1498.25,-416.5"/>
<text text-anchor="middle" x="1524.75" y="-470.3" font-family="Times,serif" font-size="14.00">ARST</text>
<polyline fill="none" stroke="black" points="1498.25,-462.5 1551.25,-462.5 "/>
<text text-anchor="middle" x="1524.75" y="-447.3" font-family="Times,serif" font-size="14.00">CLK</text>
<polyline fill="none" stroke="black" points="1498.25,-439.5 1551.25,-439.5 "/>
<text text-anchor="middle" x="1524.75" y="-424.3" font-family="Times,serif" font-size="14.00">D</text>
<polyline fill="none" stroke="black" points="1551.25,-416.5 1551.25,-485.5 "/>
<text text-anchor="middle" x="1574.25" y="-454.8" font-family="Times,serif" font-size="14.00">$13</text>
<text text-anchor="middle" x="1574.25" y="-439.8" font-family="Times,serif" font-size="14.00">$adff</text>
<polyline fill="none" stroke="black" points="1597.25,-416.5 1597.25,-485.5 "/>
<text text-anchor="middle" x="1610.75" y="-447.3" font-family="Times,serif" font-size="14.00">Q</text>
</g>
<!-- n13&#45;&gt;c39 -->
<g id="edge10" class="edge"><title>n13:e&#45;&gt;c39:p21:w</title>
<path fill="none" stroke="black" stroke-width="3" d="M1462.25,-416C1475.03,-416 1479.43,-422.891 1488.15,-426.229"/>
<polygon fill="black" stroke="black" stroke-width="3" points="1487.8,-429.721 1498.25,-428 1489.01,-422.826 1487.8,-429.721"/>
</g>
<!-- n14 -->
<g id="node14" class="node"><title>n14</title>
<polygon fill="none" stroke="black" points="1141.67,-653 1114.67,-635 1141.67,-617 1168.67,-635 1141.67,-653"/>
<text text-anchor="middle" x="1141.67" y="-631.3" font-family="Times,serif" font-size="14.00">y</text>
</g>
<!-- n14&#45;&gt;c38 -->
<g id="edge12" class="edge"><title>n14:e&#45;&gt;c38:p27:w</title>
<path fill="none" stroke="black" stroke-width="3" d="M1169.67,-635C1193.89,-635 1190.09,-603.243 1206.43,-594.312"/>
<polygon fill="black" stroke="black" stroke-width="3" points="1207.34,-597.693 1216.28,-592 1205.74,-590.878 1207.34,-597.693"/>
</g>
<!-- n15 -->
<g id="node15" class="node"><title>n15</title>
<polygon fill="none" stroke="black" points="119.6,-435.544 119.6,-450.456 95.2826,-461 60.8928,-461 36.5756,-450.456 36.5756,-435.544 60.8928,-425 95.2826,-425 119.6,-435.544"/>
<text text-anchor="middle" x="78.0877" y="-439.3" font-family="Times,serif" font-size="14.00">input_0</text>
</g>
<!-- c30 -->
<g id="node24" class="node"><title>c30</title>
<polygon fill="none" stroke="black" points="411.459,-155 411.459,-201 507.459,-201 507.459,-155 411.459,-155"/>
<text text-anchor="middle" x="424.459" y="-185.8" font-family="Times,serif" font-size="14.00">A</text>
<polyline fill="none" stroke="black" points="411.459,-178 437.459,-178 "/>
<text text-anchor="middle" x="424.459" y="-162.8" font-family="Times,serif" font-size="14.00">B</text>
<polyline fill="none" stroke="black" points="437.459,-155 437.459,-201 "/>
<text text-anchor="middle" x="459.459" y="-181.8" font-family="Times,serif" font-size="14.00">$9</text>
<text text-anchor="middle" x="459.459" y="-166.8" font-family="Times,serif" font-size="14.00">$mul</text>
<polyline fill="none" stroke="black" points="481.459,-155 481.459,-201 "/>
<text text-anchor="middle" x="494.459" y="-174.3" font-family="Times,serif" font-size="14.00">Y</text>
</g>
<!-- n15&#45;&gt;c30 -->
<g id="edge13" class="edge"><title>n15:e&#45;&gt;c30:p28:w</title>
<path fill="none" stroke="black" stroke-width="3" d="M121.088,-443C157.888,-443 144.778,-402.991 156.175,-368 182.118,-288.354 129.644,-238.734 192.175,-183 262.583,-120.246 310.263,-162.762 401.329,-165.829"/>
<polygon fill="black" stroke="black" stroke-width="3" points="401.401,-169.331 411.459,-166 401.52,-162.332 401.401,-169.331"/>
</g>
<!-- c31 -->
<g id="node26" class="node"><title>c31</title>
<polygon fill="none" stroke="black" points="411.459,-384 411.459,-430 507.459,-430 507.459,-384 411.459,-384"/>
<text text-anchor="middle" x="424.459" y="-414.8" font-family="Times,serif" font-size="14.00">A</text>
<polyline fill="none" stroke="black" points="411.459,-407 437.459,-407 "/>
<text text-anchor="middle" x="424.459" y="-391.8" font-family="Times,serif" font-size="14.00">B</text>
<polyline fill="none" stroke="black" points="437.459,-384 437.459,-430 "/>
<text text-anchor="middle" x="459.459" y="-410.8" font-family="Times,serif" font-size="14.00">$9</text>
<text text-anchor="middle" x="459.459" y="-395.8" font-family="Times,serif" font-size="14.00">$mul</text>
<polyline fill="none" stroke="black" points="481.459,-384 481.459,-430 "/>
<text text-anchor="middle" x="494.459" y="-403.3" font-family="Times,serif" font-size="14.00">Y</text>
</g>
<!-- n15&#45;&gt;c31 -->
<g id="edge14" class="edge"><title>n15:e&#45;&gt;c31:p28:w</title>
<path fill="none" stroke="black" stroke-width="3" d="M121.088,-443C160.764,-443 154.574,-401.662 192.175,-389 269.375,-363.003 294.277,-382.281 375.459,-389 387.583,-390.003 392.647,-392.877 401.264,-394.251"/>
<polygon fill="black" stroke="black" stroke-width="3" points="401.229,-397.757 411.459,-395 401.743,-390.776 401.229,-397.757"/>
</g>
<!-- c32 -->
<g id="node28" class="node"><title>c32</title>
<polygon fill="none" stroke="black" points="411.459,-590 411.459,-636 507.459,-636 507.459,-590 411.459,-590"/>
<text text-anchor="middle" x="424.459" y="-620.8" font-family="Times,serif" font-size="14.00">A</text>
<polyline fill="none" stroke="black" points="411.459,-613 437.459,-613 "/>
<text text-anchor="middle" x="424.459" y="-597.8" font-family="Times,serif" font-size="14.00">B</text>
<polyline fill="none" stroke="black" points="437.459,-590 437.459,-636 "/>
<text text-anchor="middle" x="459.459" y="-616.8" font-family="Times,serif" font-size="14.00">$9</text>
<text text-anchor="middle" x="459.459" y="-601.8" font-family="Times,serif" font-size="14.00">$mul</text>
<polyline fill="none" stroke="black" points="481.459,-590 481.459,-636 "/>
<text text-anchor="middle" x="494.459" y="-609.3" font-family="Times,serif" font-size="14.00">Y</text>
</g>
<!-- n15&#45;&gt;c32 -->
<g id="edge15" class="edge"><title>n15:e&#45;&gt;c32:p28:w</title>
<path fill="none" stroke="black" stroke-width="3" d="M121.088,-443C165.742,-443 154.854,-489.482 192.175,-514 212.158,-527.127 356.312,-588.687 401.388,-599.406"/>
<polygon fill="black" stroke="black" stroke-width="3" points="401.035,-602.894 411.459,-601 402.129,-595.98 401.035,-602.894"/>
</g>
<!-- c33 -->
<g id="node30" class="node"><title>c33</title>
<polygon fill="none" stroke="black" points="411.459,-796 411.459,-842 507.459,-842 507.459,-796 411.459,-796"/>
<text text-anchor="middle" x="424.459" y="-826.8" font-family="Times,serif" font-size="14.00">A</text>
<polyline fill="none" stroke="black" points="411.459,-819 437.459,-819 "/>
<text text-anchor="middle" x="424.459" y="-803.8" font-family="Times,serif" font-size="14.00">B</text>
<polyline fill="none" stroke="black" points="437.459,-796 437.459,-842 "/>
<text text-anchor="middle" x="459.459" y="-822.8" font-family="Times,serif" font-size="14.00">$9</text>
<text text-anchor="middle" x="459.459" y="-807.8" font-family="Times,serif" font-size="14.00">$mul</text>
<polyline fill="none" stroke="black" points="481.459,-796 481.459,-842 "/>
<text text-anchor="middle" x="494.459" y="-815.3" font-family="Times,serif" font-size="14.00">Y</text>
</g>
<!-- n15&#45;&gt;c33 -->
<g id="edge16" class="edge"><title>n15:e&#45;&gt;c33:p28:w</title>
<path fill="none" stroke="black" stroke-width="3" d="M121.088,-443C248.188,-443 108.161,-624.626 192.175,-720 207.979,-737.941 355.578,-795.533 401.291,-805.518"/>
<polygon fill="black" stroke="black" stroke-width="3" points="401.059,-809.021 411.459,-807 402.069,-802.094 401.059,-809.021"/>
</g>
<!-- n16 -->
<g id="node16" class="node"><title>n16</title>
<polygon fill="none" stroke="black" points="2822.61,-79.5442 2822.61,-94.4558 2794.92,-105 2755.76,-105 2728.07,-94.4558 2728.07,-79.5442 2755.76,-69 2794.92,-69 2822.61,-79.5442"/>
<text text-anchor="middle" x="2775.34" y="-83.3" font-family="Times,serif" font-size="14.00">output_0</text>
</g>
<!-- n17 -->
<g id="node17" class="node"><title>n17</title>
<polygon fill="none" stroke="black" points="136.368,-333.544 136.368,-348.456 102.228,-359 53.9473,-359 19.8077,-348.456 19.8077,-333.544 53.9473,-323 102.228,-323 136.368,-333.544"/>
<text text-anchor="middle" x="78.0877" y="-337.3" font-family="Times,serif" font-size="14.00">system1000</text>
</g>
<!-- n17&#45;&gt;c23 -->
<g id="edge18" class="edge"><title>n17:e&#45;&gt;c23:p20:w</title>
<path fill="none" stroke="black" d="M137.088,-341C213.848,-341 139.828,-625.859 192.175,-682 248.909,-742.845 294.193,-702.203 375.459,-720 501.439,-747.589 531.827,-784.968 655.595,-786.92"/>
<polygon fill="black" stroke="black" points="655.833,-790.422 665.86,-787 655.887,-783.422 655.833,-790.422"/>
</g>
<!-- n17&#45;&gt;c24 -->
<g id="edge19" class="edge"><title>n17:e&#45;&gt;c24:p20:w</title>
<path fill="none" stroke="black" d="M137.088,-341C201.891,-341 142.357,-434.556 192.175,-476 256.13,-529.204 294.371,-495.411 375.459,-514 405.545,-520.897 601.117,-577.827 655.793,-586.019"/>
<polygon fill="black" stroke="black" points="655.568,-589.514 665.86,-587 656.246,-582.547 655.568,-589.514"/>
</g>
<!-- n17&#45;&gt;c25 -->
<g id="edge20" class="edge"><title>n17:e&#45;&gt;c25:p20:w</title>
<path fill="none" stroke="black" d="M137.088,-341C356.681,-341 412.596,-345.097 629.86,-377 642.149,-378.805 647.074,-382.468 655.872,-384.137"/>
<polygon fill="black" stroke="black" points="655.596,-387.626 665.86,-385 656.198,-380.652 655.596,-387.626"/>
</g>
<!-- n17&#45;&gt;c26 -->
<g id="edge21" class="edge"><title>n17:e&#45;&gt;c26:p20:w</title>
<path fill="none" stroke="black" d="M137.088,-341C227.574,-341 120.053,-199.646 192.175,-145 248.019,-102.688 438.757,-131.26 507.459,-145 524.456,-148.399 526.756,-155.37 543.459,-160 593.031,-173.741 608.854,-177.526 655.712,-177.957"/>
<polygon fill="black" stroke="black" points="655.845,-181.457 665.86,-178 655.875,-174.457 655.845,-181.457"/>
</g>
<!-- n17&#45;&gt;c35 -->
<g id="edge22" class="edge"><title>n17:e&#45;&gt;c35:p20:w</title>
<path fill="none" stroke="black" d="M137.088,-341C238.747,-341 115.988,-186.306 192.175,-119 281.508,-40.0809 339.259,-87 458.459,-87 458.459,-87 458.459,-87 2333.23,-87 2433.34,-87 2460.86,-87 2556.14,-87"/>
<polygon fill="black" stroke="black" points="2556.2,-90.5001 2566.2,-87 2556.2,-83.5001 2556.2,-90.5001"/>
</g>
<!-- n17&#45;&gt;c37 -->
<g id="edge23" class="edge"><title>n17:e&#45;&gt;c37:p20:w</title>
<path fill="none" stroke="black" d="M137.088,-341C284.831,-341 310.716,-256 458.459,-256 458.459,-256 458.459,-256 1799.25,-256 1899.47,-256 1926.78,-245.718 2022.16,-245.036"/>
<polygon fill="black" stroke="black" points="2022.24,-248.535 2032.23,-245 2022.22,-241.535 2022.24,-248.535"/>
</g>
<!-- n17&#45;&gt;c39 -->
<g id="edge24" class="edge"><title>n17:e&#45;&gt;c39:p20:w</title>
<path fill="none" stroke="black" d="M137.088,-341C188.61,-341 148.894,-415.049 192.175,-443 242.011,-475.184 399.134,-462 458.459,-462 458.459,-462 458.459,-462 1265.28,-462 1365.5,-462 1392.8,-451.718 1488.18,-451.036"/>
<polygon fill="black" stroke="black" points="1488.27,-454.535 1498.25,-451 1488.24,-447.535 1488.27,-454.535"/>
</g>
<!-- n17&#45;&gt;c40 -->
<g id="edge25" class="edge"><title>n17:e&#45;&gt;c40:p20:w</title>
<path fill="none" stroke="black" d="M137.088,-341C276.149,-341 89.8935,-554.785 192.175,-649 235.81,-689.193 399.134,-668 458.459,-668 458.459,-668 458.459,-668 729.86,-668 820.393,-668 845.23,-656.874 930.887,-656.048"/>
<polygon fill="black" stroke="black" points="931.086,-659.548 941.069,-656 931.053,-652.548 931.086,-659.548"/>
</g>
<!-- n18 -->
<g id="node18" class="node"><title>n18</title>
<polygon fill="none" stroke="black" points="156.263,-885.544 156.263,-900.456 110.469,-911 45.7063,-911 -0.087767,-900.456 -0.087767,-885.544 45.7063,-875 110.469,-875 156.263,-885.544"/>
<text text-anchor="middle" x="78.0877" y="-889.3" font-family="Times,serif" font-size="14.00">system1000_rstn</text>
</g>
<!-- n18&#45;&gt;c23 -->
<g id="edge26" class="edge"><title>n18:e&#45;&gt;c23:p19:w</title>
<path fill="none" stroke="black" d="M156.175,-893C262.023,-893 533.365,-886.504 629.86,-843 645.782,-835.821 645.336,-818.828 655.864,-812.463"/>
<polygon fill="black" stroke="black" points="656.988,-815.791 665.86,-810 655.313,-808.994 656.988,-815.791"/>
</g>
<!-- n18&#45;&gt;c24 -->
<g id="edge27" class="edge"><title>n18:e&#45;&gt;c24:p19:w</title>
<path fill="none" stroke="black" d="M156.175,-893C200.083,-893 160.904,-831.822 192.175,-801 229.163,-764.544 584.309,-661.944 629.86,-637 643.839,-629.345 645.699,-616.745 655.998,-611.942"/>
<polygon fill="black" stroke="black" points="656.725,-615.366 665.86,-610 655.372,-608.498 656.725,-615.366"/>
</g>
<!-- n18&#45;&gt;c25 -->
<g id="edge28" class="edge"><title>n18:e&#45;&gt;c25:p19:w</title>
<path fill="none" stroke="black" d="M156.175,-893C222.879,-893 150.949,-647.439 192.175,-595 224.273,-554.173 583.406,-454.219 629.86,-431 643.128,-424.368 646.049,-414.06 655.745,-409.868"/>
<polygon fill="black" stroke="black" points="656.662,-413.258 665.86,-408 655.39,-406.375 656.662,-413.258"/>
</g>
<!-- n18&#45;&gt;c26 -->
<g id="edge29" class="edge"><title>n18:e&#45;&gt;c26:p19:w</title>
<path fill="none" stroke="black" d="M156.175,-893C212.318,-893 154.653,-430.762 192.175,-389 247.494,-327.432 297.269,-383.15 375.459,-356 510.426,-309.135 519.21,-205.984 655.801,-201.174"/>
<polygon fill="black" stroke="black" points="655.922,-204.673 665.86,-201 655.801,-197.674 655.922,-204.673"/>
</g>
<!-- n18&#45;&gt;c35 -->
<g id="edge30" class="edge"><title>n18:e&#45;&gt;c35:p19:w</title>
<path fill="none" stroke="black" d="M156.175,-893C200.083,-893 157.904,-957.552 192.175,-985 285.638,-1059.85 338.716,-1026 458.459,-1026 458.459,-1026 458.459,-1026 2333.23,-1026 2749.81,-1026 2156.14,-125.144 2555.96,-110.188"/>
<polygon fill="black" stroke="black" points="2556.27,-113.683 2566.2,-110 2556.14,-106.684 2556.27,-113.683"/>
</g>
<!-- n18&#45;&gt;c37 -->
<g id="edge31" class="edge"><title>n18:e&#45;&gt;c37:p19:w</title>
<path fill="none" stroke="black" d="M156.175,-893C186.138,-893 167.024,-933.715 192.175,-950 292.524,-1014.98 338.912,-988 458.459,-988 458.459,-988 458.459,-988 1799.25,-988 2132.14,-988 1704.83,-282.69 2022.13,-268.226"/>
<polygon fill="black" stroke="black" points="2022.31,-271.722 2032.23,-268 2022.15,-264.724 2022.31,-271.722"/>
</g>
<!-- n18&#45;&gt;c39 -->
<g id="edge32" class="edge"><title>n18:e&#45;&gt;c39:p19:w</title>
<path fill="none" stroke="black" d="M156.175,-893C175.912,-893 173.779,-911.85 192.175,-919 303.23,-962.162 339.311,-950 458.459,-950 458.459,-950 458.459,-950 1265.28,-950 1497.36,-950 1269.59,-487.843 1488.2,-474.303"/>
<polygon fill="black" stroke="black" points="1488.36,-477.8 1498.25,-474 1488.15,-470.804 1488.36,-477.8"/>
</g>
<!-- n18&#45;&gt;c40 -->
<g id="edge33" class="edge"><title>n18:e&#45;&gt;c40:p19:w</title>
<path fill="none" stroke="black" d="M156.175,-893C172.329,-893 176.095,-896.463 192.175,-898 310.15,-909.273 339.947,-912 458.459,-912 458.459,-912 458.459,-912 729.86,-912 866.08,-912 804.635,-690.682 930.818,-679.443"/>
<polygon fill="black" stroke="black" points="931.23,-682.929 941.069,-679 930.927,-675.935 931.23,-682.929"/>
</g>
<!-- c23&#45;&gt;n8 -->
<g id="edge46" class="edge"><title>c23:p22:e&#45;&gt;n8:w</title>
<path fill="none" stroke="black" stroke-width="3" d="M791.86,-787C863.107,-787 763.904,-638.332 817.839,-623.233"/>
<polygon fill="black" stroke="black" stroke-width="3" points="818.362,-626.695 827.86,-622 817.507,-619.748 818.362,-626.695"/>
</g>
<!-- c24&#45;&gt;n7 -->
<g id="edge44" class="edge"><title>c24:p22:e&#45;&gt;n7:w</title>
<path fill="none" stroke="black" stroke-width="3" d="M791.86,-587C805.853,-587 808.913,-575.634 817.952,-570.484"/>
<polygon fill="black" stroke="black" stroke-width="3" points="819.011,-573.827 827.86,-568 817.309,-567.037 819.011,-573.827"/>
</g>
<!-- c25&#45;&gt;n6 -->
<g id="edge42" class="edge"><title>c25:p22:e&#45;&gt;n6:w</title>
<path fill="none" stroke="black" stroke-width="3" d="M791.86,-385C926.747,-385 962.853,-374.552 1092.72,-374.021"/>
<polygon fill="black" stroke="black" stroke-width="3" points="1093.08,-377.52 1103.07,-374 1093.06,-370.52 1093.08,-377.52"/>
</g>
<!-- c26&#45;&gt;n5 -->
<g id="edge40" class="edge"><title>c26:p22:e&#45;&gt;n5:w</title>
<path fill="none" stroke="black" stroke-width="3" d="M791.86,-178C864.932,-178 885.506,-168.916 953.657,-168.064"/>
<polygon fill="black" stroke="black" stroke-width="3" points="954.091,-171.561 964.069,-168 954.048,-164.561 954.091,-171.561"/>
</g>
<!-- v0 -->
<g id="node23" class="node"><title>v0</title>
<ellipse fill="none" stroke="black" cx="283.817" cy="-210" rx="91.784" ry="18"/>
<text text-anchor="middle" x="283.817" y="-206.3" font-family="Times,serif" font-size="14.00">16&#39;0000000000001001</text>
</g>
<!-- v0&#45;&gt;c30 -->
<g id="edge50" class="edge"><title>v0:e&#45;&gt;c30:p27:w</title>
<path fill="none" stroke="black" stroke-width="3" d="M375.459,-210C389.616,-210 392.46,-198.036 401.491,-192.615"/>
<polygon fill="black" stroke="black" stroke-width="3" points="402.674,-195.923 411.459,-190 400.898,-189.152 402.674,-195.923"/>
</g>
<!-- c30&#45;&gt;n1 -->
<g id="edge1" class="edge"><title>c30:p29:e&#45;&gt;n1:w</title>
<path fill="none" stroke="black" stroke-width="3" d="M507.459,-178C528.87,-178 521.743,-146.554 533.79,-136.236"/>
<polygon fill="black" stroke="black" stroke-width="3" points="535.087,-139.493 543.459,-133 532.865,-132.855 535.087,-139.493"/>
</g>
<!-- v1 -->
<g id="node25" class="node"><title>v1</title>
<ellipse fill="none" stroke="black" cx="283.817" cy="-416" rx="90.9839" ry="18"/>
<text text-anchor="middle" x="283.817" y="-412.3" font-family="Times,serif" font-size="14.00">16&#39;0000000000000111</text>
</g>
<!-- v1&#45;&gt;c31 -->
<g id="edge51" class="edge"><title>v1:e&#45;&gt;c31:p27:w</title>
<path fill="none" stroke="black" stroke-width="3" d="M375.459,-416C387.501,-416 392.699,-417.688 401.318,-418.531"/>
<polygon fill="black" stroke="black" stroke-width="3" points="401.308,-422.034 411.459,-419 401.631,-415.042 401.308,-422.034"/>
</g>
<!-- c31&#45;&gt;n2 -->
<g id="edge34" class="edge"><title>c31:p29:e&#45;&gt;n2:w</title>
<path fill="none" stroke="black" stroke-width="3" d="M507.459,-407C519.501,-407 524.699,-405.312 533.318,-404.469"/>
<polygon fill="black" stroke="black" stroke-width="3" points="533.631,-407.958 543.459,-404 533.308,-400.966 533.631,-407.958"/>
</g>
<!-- v2 -->
<g id="node27" class="node"><title>v2</title>
<ellipse fill="none" stroke="black" cx="283.817" cy="-622" rx="91.784" ry="18"/>
<text text-anchor="middle" x="283.817" y="-618.3" font-family="Times,serif" font-size="14.00">16&#39;0000000000000101</text>
</g>
<!-- v2&#45;&gt;c32 -->
<g id="edge52" class="edge"><title>v2:e&#45;&gt;c32:p27:w</title>
<path fill="none" stroke="black" stroke-width="3" d="M375.459,-622C387.501,-622 392.699,-623.688 401.318,-624.531"/>
<polygon fill="black" stroke="black" stroke-width="3" points="401.308,-628.034 411.459,-625 401.631,-621.042 401.308,-628.034"/>
</g>
<!-- c32&#45;&gt;n3 -->
<g id="edge36" class="edge"><title>c32:p29:e&#45;&gt;n3:w</title>
<path fill="none" stroke="black" stroke-width="3" d="M507.459,-613C519.501,-613 524.699,-611.312 533.318,-610.469"/>
<polygon fill="black" stroke="black" stroke-width="3" points="533.631,-613.958 543.459,-610 533.308,-606.966 533.631,-613.958"/>
</g>
<!-- v3 -->
<g id="node29" class="node"><title>v3</title>
<ellipse fill="none" stroke="black" cx="283.817" cy="-828" rx="91.784" ry="18"/>
<text text-anchor="middle" x="283.817" y="-824.3" font-family="Times,serif" font-size="14.00">16&#39;0000000000000011</text>
</g>
<!-- v3&#45;&gt;c33 -->
<g id="edge53" class="edge"><title>v3:e&#45;&gt;c33:p27:w</title>
<path fill="none" stroke="black" stroke-width="3" d="M375.459,-828C387.501,-828 392.699,-829.688 401.318,-830.531"/>
<polygon fill="black" stroke="black" stroke-width="3" points="401.308,-834.034 411.459,-831 401.631,-827.042 401.308,-834.034"/>
</g>
<!-- c33&#45;&gt;n4 -->
<g id="edge38" class="edge"><title>c33:p29:e&#45;&gt;n4:w</title>
<path fill="none" stroke="black" stroke-width="3" d="M507.459,-819C519.501,-819 524.699,-817.312 533.318,-816.469"/>
<polygon fill="black" stroke="black" stroke-width="3" points="533.631,-819.958 543.459,-816 533.308,-812.966 533.631,-819.958"/>
</g>
<!-- c34&#45;&gt;n9 -->
<g id="edge48" class="edge"><title>c34:p29:e&#45;&gt;n9:w</title>
<path fill="none" stroke="black" stroke-width="3" d="M2380.23,-176C2438.44,-176 2364.57,-57.3477 2406.27,-42.5161"/>
<polygon fill="black" stroke="black" stroke-width="3" points="2406.87,-45.9658 2416.23,-41 2405.82,-39.0455 2406.87,-45.9658"/>
</g>
<!-- c35&#45;&gt;n16 -->
<g id="edge17" class="edge"><title>c35:p22:e&#45;&gt;n16:w</title>
<path fill="none" stroke="black" stroke-width="3" d="M2692.2,-87C2704.2,-87 2709.45,-87 2718.08,-87"/>
<polygon fill="black" stroke="black" stroke-width="3" points="2718.2,-90.5001 2728.2,-87 2718.2,-83.5001 2718.2,-90.5001"/>
</g>
<!-- c36&#45;&gt;n11 -->
<g id="edge5" class="edge"><title>c36:p29:e&#45;&gt;n11:w</title>
<path fill="none" stroke="black" stroke-width="3" d="M1846.25,-382C1920.54,-382 1815.42,-226.387 1872.19,-211.19"/>
<polygon fill="black" stroke="black" stroke-width="3" points="1872.73,-214.65 1882.25,-210 1871.91,-207.698 1872.73,-214.65"/>
</g>
<!-- c37&#45;&gt;n10 -->
<g id="edge3" class="edge"><title>c37:p22:e&#45;&gt;n10:w</title>
<path fill="none" stroke="black" stroke-width="3" d="M2158.23,-245C2171.91,-245 2175.38,-234.831 2184.44,-230.222"/>
<polygon fill="black" stroke="black" stroke-width="3" points="2185.25,-233.626 2194.23,-228 2183.7,-226.8 2185.25,-233.626"/>
</g>
<!-- c38&#45;&gt;n13 -->
<g id="edge9" class="edge"><title>c38:p29:e&#45;&gt;n13:w</title>
<path fill="none" stroke="black" stroke-width="3" d="M1312.28,-580C1383.11,-580 1284.67,-432.233 1338.31,-417.226"/>
<polygon fill="black" stroke="black" stroke-width="3" points="1338.78,-420.695 1348.28,-416 1337.93,-413.747 1338.78,-420.695"/>
</g>
<!-- c39&#45;&gt;n12 -->
<g id="edge7" class="edge"><title>c39:p22:e&#45;&gt;n12:w</title>
<path fill="none" stroke="black" stroke-width="3" d="M1624.25,-451C1637.94,-451 1641.41,-440.831 1650.46,-436.222"/>
<polygon fill="black" stroke="black" stroke-width="3" points="1651.28,-439.626 1660.25,-434 1649.73,-432.8 1651.28,-439.626"/>
</g>
<!-- c40&#45;&gt;n14 -->
<g id="edge11" class="edge"><title>c40:p22:e&#45;&gt;n14:w</title>
<path fill="none" stroke="black" stroke-width="3" d="M1067.07,-656C1085.88,-656 1089.92,-641.598 1103.65,-636.648"/>
<polygon fill="black" stroke="black" stroke-width="3" points="1104.37,-640.076 1113.67,-635 1103.24,-633.169 1104.37,-640.076"/>
</g>
</g>
</svg>
